<mxfile host="65bd71144e">
    <diagram id="j_3ZSxKP5diQxHW2TGSz" name="Page-1">
        <mxGraphModel dx="2450" dy="798" grid="1" gridSize="10" guides="1" tooltips="1" connect="1" arrows="1" fold="1" page="1" pageScale="1" pageWidth="850" pageHeight="1100" math="0" shadow="0">
            <root>
                <mxCell id="0"/>
                <mxCell id="1" parent="0"/>
                <mxCell id="256" value="" style="rounded=0;whiteSpace=wrap;html=1;fontSize=16;" parent="1" vertex="1">
                    <mxGeometry x="625" y="850" width="80" height="260" as="geometry"/>
                </mxCell>
                <mxCell id="255" value="" style="rounded=0;whiteSpace=wrap;html=1;" parent="1" vertex="1">
                    <mxGeometry x="625" y="810" width="480" height="300" as="geometry"/>
                </mxCell>
                <mxCell id="102" value="" style="rounded=0;whiteSpace=wrap;html=1;" parent="1" vertex="1">
                    <mxGeometry x="60" y="430" width="480" height="300" as="geometry"/>
                </mxCell>
                <mxCell id="2" value="" style="rounded=0;whiteSpace=wrap;html=1;" parent="1" vertex="1">
                    <mxGeometry x="60" y="60" width="480" height="300" as="geometry"/>
                </mxCell>
                <mxCell id="3" value="トップページ" style="text;html=1;strokeColor=none;fillColor=none;align=center;verticalAlign=middle;whiteSpace=wrap;rounded=0;fontStyle=1;fontSize=16;" parent="1" vertex="1">
                    <mxGeometry x="20" y="20" width="120" height="30" as="geometry"/>
                </mxCell>
                <mxCell id="4" value="" style="rounded=0;whiteSpace=wrap;html=1;fontSize=16;" parent="1" vertex="1">
                    <mxGeometry x="60" y="60" width="480" height="40" as="geometry"/>
                </mxCell>
                <mxCell id="5" value="ショクカン" style="text;html=1;strokeColor=none;fillColor=none;align=center;verticalAlign=middle;whiteSpace=wrap;rounded=0;fontStyle=0;fontSize=16;" parent="1" vertex="1">
                    <mxGeometry x="100" y="65" width="120" height="30" as="geometry"/>
                </mxCell>
                <mxCell id="12" value="" style="group" parent="1" vertex="1" connectable="0">
                    <mxGeometry x="71" y="75" width="20" height="13" as="geometry"/>
                </mxCell>
                <mxCell id="6" value="" style="endArrow=none;html=1;fontSize=16;" parent="12" edge="1">
                    <mxGeometry width="50" height="50" relative="1" as="geometry">
                        <mxPoint x="20" as="sourcePoint"/>
                        <mxPoint as="targetPoint"/>
                    </mxGeometry>
                </mxCell>
                <mxCell id="10" value="" style="endArrow=none;html=1;fontSize=16;" parent="12" edge="1">
                    <mxGeometry width="50" height="50" relative="1" as="geometry">
                        <mxPoint x="20" y="6" as="sourcePoint"/>
                        <mxPoint y="6" as="targetPoint"/>
                    </mxGeometry>
                </mxCell>
                <mxCell id="11" value="" style="endArrow=none;html=1;fontSize=16;" parent="12" edge="1">
                    <mxGeometry width="50" height="50" relative="1" as="geometry">
                        <mxPoint x="20" y="13" as="sourcePoint"/>
                        <mxPoint y="13" as="targetPoint"/>
                    </mxGeometry>
                </mxCell>
                <mxCell id="13" value="" style="rounded=0;whiteSpace=wrap;html=1;fontSize=16;" parent="1" vertex="1">
                    <mxGeometry x="60" y="100" width="80" height="260" as="geometry"/>
                </mxCell>
                <mxCell id="15" value="食事登録" style="rounded=1;whiteSpace=wrap;html=1;fontSize=16;" parent="1" vertex="1">
                    <mxGeometry x="60" y="110" width="80" height="30" as="geometry"/>
                </mxCell>
                <mxCell id="16" value="食事照会" style="rounded=1;whiteSpace=wrap;html=1;fontSize=16;" parent="1" vertex="1">
                    <mxGeometry x="60" y="150" width="80" height="30" as="geometry"/>
                </mxCell>
                <mxCell id="17" value="料理設定" style="rounded=1;whiteSpace=wrap;html=1;fontSize=16;" parent="1" vertex="1">
                    <mxGeometry x="60" y="190" width="80" height="30" as="geometry"/>
                </mxCell>
                <mxCell id="18" value="" style="rounded=0;whiteSpace=wrap;html=1;fontSize=16;" parent="1" vertex="1">
                    <mxGeometry x="150" y="110" width="230" height="110" as="geometry"/>
                </mxCell>
                <mxCell id="20" value="" style="shape=table;html=1;whiteSpace=wrap;startSize=0;container=1;collapsible=0;childLayout=tableLayout;fontSize=16;" parent="1" vertex="1">
                    <mxGeometry x="150" y="230" width="380" height="120" as="geometry"/>
                </mxCell>
                <mxCell id="21" value="" style="shape=tableRow;horizontal=0;startSize=0;swimlaneHead=0;swimlaneBody=0;top=0;left=0;bottom=0;right=0;collapsible=0;dropTarget=0;fillColor=none;points=[[0,0.5],[1,0.5]];portConstraint=eastwest;fontSize=16;fontStyle=1" parent="20" vertex="1">
                    <mxGeometry width="380" height="20" as="geometry"/>
                </mxCell>
                <mxCell id="22" value="&lt;span style=&quot;font-size: 14px;&quot;&gt;No.&lt;/span&gt;" style="shape=partialRectangle;html=1;whiteSpace=wrap;connectable=0;fillColor=none;top=0;left=0;bottom=0;right=0;overflow=hidden;fontSize=14;fontStyle=1" parent="21" vertex="1">
                    <mxGeometry width="50" height="20" as="geometry">
                        <mxRectangle width="50" height="20" as="alternateBounds"/>
                    </mxGeometry>
                </mxCell>
                <mxCell id="23" value="成分" style="shape=partialRectangle;html=1;whiteSpace=wrap;connectable=0;fillColor=none;top=0;left=0;bottom=0;right=0;overflow=hidden;fontSize=14;fontStyle=1" parent="21" vertex="1">
                    <mxGeometry x="50" width="110" height="20" as="geometry">
                        <mxRectangle width="110" height="20" as="alternateBounds"/>
                    </mxGeometry>
                </mxCell>
                <mxCell id="24" value="摂取量" style="shape=partialRectangle;html=1;whiteSpace=wrap;connectable=0;fillColor=none;top=0;left=0;bottom=0;right=0;overflow=hidden;fontSize=14;fontStyle=1" parent="21" vertex="1">
                    <mxGeometry x="160" width="110" height="20" as="geometry">
                        <mxRectangle width="110" height="20" as="alternateBounds"/>
                    </mxGeometry>
                </mxCell>
                <mxCell id="33" value="目標差分" style="shape=partialRectangle;html=1;whiteSpace=wrap;connectable=0;fillColor=none;top=0;left=0;bottom=0;right=0;overflow=hidden;fontSize=14;fontStyle=1" parent="21" vertex="1">
                    <mxGeometry x="270" width="110" height="20" as="geometry">
                        <mxRectangle width="110" height="20" as="alternateBounds"/>
                    </mxGeometry>
                </mxCell>
                <mxCell id="25" value="" style="shape=tableRow;horizontal=0;startSize=0;swimlaneHead=0;swimlaneBody=0;top=0;left=0;bottom=0;right=0;collapsible=0;dropTarget=0;fillColor=none;points=[[0,0.5],[1,0.5]];portConstraint=eastwest;fontSize=16;" parent="20" vertex="1">
                    <mxGeometry y="20" width="380" height="20" as="geometry"/>
                </mxCell>
                <mxCell id="26" value="1" style="shape=partialRectangle;html=1;whiteSpace=wrap;connectable=0;fillColor=none;top=0;left=0;bottom=0;right=0;overflow=hidden;fontSize=12;" parent="25" vertex="1">
                    <mxGeometry width="50" height="20" as="geometry">
                        <mxRectangle width="50" height="20" as="alternateBounds"/>
                    </mxGeometry>
                </mxCell>
                <mxCell id="27" value="熱量" style="shape=partialRectangle;html=1;whiteSpace=wrap;connectable=0;fillColor=none;top=0;left=0;bottom=0;right=0;overflow=hidden;fontSize=12;" parent="25" vertex="1">
                    <mxGeometry x="50" width="110" height="20" as="geometry">
                        <mxRectangle width="110" height="20" as="alternateBounds"/>
                    </mxGeometry>
                </mxCell>
                <mxCell id="28" value="2000kcal" style="shape=partialRectangle;html=1;whiteSpace=wrap;connectable=0;fillColor=none;top=0;left=0;bottom=0;right=0;overflow=hidden;fontSize=12;" parent="25" vertex="1">
                    <mxGeometry x="160" width="110" height="20" as="geometry">
                        <mxRectangle width="110" height="20" as="alternateBounds"/>
                    </mxGeometry>
                </mxCell>
                <mxCell id="34" value="650kcal" style="shape=partialRectangle;html=1;whiteSpace=wrap;connectable=0;fillColor=none;top=0;left=0;bottom=0;right=0;overflow=hidden;fontSize=12;fontColor=#0000FF;fontStyle=1" parent="25" vertex="1">
                    <mxGeometry x="270" width="110" height="20" as="geometry">
                        <mxRectangle width="110" height="20" as="alternateBounds"/>
                    </mxGeometry>
                </mxCell>
                <mxCell id="29" value="" style="shape=tableRow;horizontal=0;startSize=0;swimlaneHead=0;swimlaneBody=0;top=0;left=0;bottom=0;right=0;collapsible=0;dropTarget=0;fillColor=none;points=[[0,0.5],[1,0.5]];portConstraint=eastwest;fontSize=16;" parent="20" vertex="1">
                    <mxGeometry y="40" width="380" height="20" as="geometry"/>
                </mxCell>
                <mxCell id="30" value="2" style="shape=partialRectangle;html=1;whiteSpace=wrap;connectable=0;fillColor=none;top=0;left=0;bottom=0;right=0;overflow=hidden;fontSize=12;" parent="29" vertex="1">
                    <mxGeometry width="50" height="20" as="geometry">
                        <mxRectangle width="50" height="20" as="alternateBounds"/>
                    </mxGeometry>
                </mxCell>
                <mxCell id="31" value="&lt;font style=&quot;font-size: 12px;&quot;&gt;タンパク質&lt;/font&gt;" style="shape=partialRectangle;html=1;whiteSpace=wrap;connectable=0;fillColor=none;top=0;left=0;bottom=0;right=0;overflow=hidden;fontSize=16;" parent="29" vertex="1">
                    <mxGeometry x="50" width="110" height="20" as="geometry">
                        <mxRectangle width="110" height="20" as="alternateBounds"/>
                    </mxGeometry>
                </mxCell>
                <mxCell id="32" value="40g" style="shape=partialRectangle;html=1;whiteSpace=wrap;connectable=0;fillColor=none;top=0;left=0;bottom=0;right=0;overflow=hidden;pointerEvents=1;fontSize=12;" parent="29" vertex="1">
                    <mxGeometry x="160" width="110" height="20" as="geometry">
                        <mxRectangle width="110" height="20" as="alternateBounds"/>
                    </mxGeometry>
                </mxCell>
                <mxCell id="35" value="25g" style="shape=partialRectangle;html=1;whiteSpace=wrap;connectable=0;fillColor=none;top=0;left=0;bottom=0;right=0;overflow=hidden;pointerEvents=1;fontSize=12;fontColor=#0000FF;fontStyle=1" parent="29" vertex="1">
                    <mxGeometry x="270" width="110" height="20" as="geometry">
                        <mxRectangle width="110" height="20" as="alternateBounds"/>
                    </mxGeometry>
                </mxCell>
                <mxCell id="46" style="shape=tableRow;horizontal=0;startSize=0;swimlaneHead=0;swimlaneBody=0;top=0;left=0;bottom=0;right=0;collapsible=0;dropTarget=0;fillColor=none;points=[[0,0.5],[1,0.5]];portConstraint=eastwest;fontSize=16;" parent="20" vertex="1">
                    <mxGeometry y="60" width="380" height="20" as="geometry"/>
                </mxCell>
                <mxCell id="47" value="3" style="shape=partialRectangle;html=1;whiteSpace=wrap;connectable=0;fillColor=none;top=0;left=0;bottom=0;right=0;overflow=hidden;fontSize=12;" parent="46" vertex="1">
                    <mxGeometry width="50" height="20" as="geometry">
                        <mxRectangle width="50" height="20" as="alternateBounds"/>
                    </mxGeometry>
                </mxCell>
                <mxCell id="48" value="脂質" style="shape=partialRectangle;html=1;whiteSpace=wrap;connectable=0;fillColor=none;top=0;left=0;bottom=0;right=0;overflow=hidden;fontSize=12;" parent="46" vertex="1">
                    <mxGeometry x="50" width="110" height="20" as="geometry">
                        <mxRectangle width="110" height="20" as="alternateBounds"/>
                    </mxGeometry>
                </mxCell>
                <mxCell id="49" value="60g" style="shape=partialRectangle;html=1;whiteSpace=wrap;connectable=0;fillColor=none;top=0;left=0;bottom=0;right=0;overflow=hidden;pointerEvents=1;fontSize=12;" parent="46" vertex="1">
                    <mxGeometry x="160" width="110" height="20" as="geometry">
                        <mxRectangle width="110" height="20" as="alternateBounds"/>
                    </mxGeometry>
                </mxCell>
                <mxCell id="50" value="5g" style="shape=partialRectangle;html=1;whiteSpace=wrap;connectable=0;fillColor=none;top=0;left=0;bottom=0;right=0;overflow=hidden;pointerEvents=1;fontSize=12;fontStyle=1;fontColor=#FF0000;" parent="46" vertex="1">
                    <mxGeometry x="270" width="110" height="20" as="geometry">
                        <mxRectangle width="110" height="20" as="alternateBounds"/>
                    </mxGeometry>
                </mxCell>
                <mxCell id="41" style="shape=tableRow;horizontal=0;startSize=0;swimlaneHead=0;swimlaneBody=0;top=0;left=0;bottom=0;right=0;collapsible=0;dropTarget=0;fillColor=none;points=[[0,0.5],[1,0.5]];portConstraint=eastwest;fontSize=16;" parent="20" vertex="1">
                    <mxGeometry y="80" width="380" height="20" as="geometry"/>
                </mxCell>
                <mxCell id="42" value="4" style="shape=partialRectangle;html=1;whiteSpace=wrap;connectable=0;fillColor=none;top=0;left=0;bottom=0;right=0;overflow=hidden;fontSize=12;" parent="41" vertex="1">
                    <mxGeometry width="50" height="20" as="geometry">
                        <mxRectangle width="50" height="20" as="alternateBounds"/>
                    </mxGeometry>
                </mxCell>
                <mxCell id="43" value="炭水化物" style="shape=partialRectangle;html=1;whiteSpace=wrap;connectable=0;fillColor=none;top=0;left=0;bottom=0;right=0;overflow=hidden;fontSize=12;" parent="41" vertex="1">
                    <mxGeometry x="50" width="110" height="20" as="geometry">
                        <mxRectangle width="110" height="20" as="alternateBounds"/>
                    </mxGeometry>
                </mxCell>
                <mxCell id="44" value="280g" style="shape=partialRectangle;html=1;whiteSpace=wrap;connectable=0;fillColor=none;top=0;left=0;bottom=0;right=0;overflow=hidden;pointerEvents=1;fontSize=12;" parent="41" vertex="1">
                    <mxGeometry x="160" width="110" height="20" as="geometry">
                        <mxRectangle width="110" height="20" as="alternateBounds"/>
                    </mxGeometry>
                </mxCell>
                <mxCell id="45" value="20g" style="shape=partialRectangle;html=1;whiteSpace=wrap;connectable=0;fillColor=none;top=0;left=0;bottom=0;right=0;overflow=hidden;pointerEvents=1;fontSize=12;fontStyle=1" parent="41" vertex="1">
                    <mxGeometry x="270" width="110" height="20" as="geometry">
                        <mxRectangle width="110" height="20" as="alternateBounds"/>
                    </mxGeometry>
                </mxCell>
                <mxCell id="36" style="shape=tableRow;horizontal=0;startSize=0;swimlaneHead=0;swimlaneBody=0;top=0;left=0;bottom=0;right=0;collapsible=0;dropTarget=0;fillColor=none;points=[[0,0.5],[1,0.5]];portConstraint=eastwest;fontSize=16;" parent="20" vertex="1">
                    <mxGeometry y="100" width="380" height="20" as="geometry"/>
                </mxCell>
                <mxCell id="37" value="5" style="shape=partialRectangle;html=1;whiteSpace=wrap;connectable=0;fillColor=none;top=0;left=0;bottom=0;right=0;overflow=hidden;fontSize=12;" parent="36" vertex="1">
                    <mxGeometry width="50" height="20" as="geometry">
                        <mxRectangle width="50" height="20" as="alternateBounds"/>
                    </mxGeometry>
                </mxCell>
                <mxCell id="38" value="食塩相当量" style="shape=partialRectangle;html=1;whiteSpace=wrap;connectable=0;fillColor=none;top=0;left=0;bottom=0;right=0;overflow=hidden;fontSize=12;" parent="36" vertex="1">
                    <mxGeometry x="50" width="110" height="20" as="geometry">
                        <mxRectangle width="110" height="20" as="alternateBounds"/>
                    </mxGeometry>
                </mxCell>
                <mxCell id="39" value="8.5g" style="shape=partialRectangle;html=1;whiteSpace=wrap;connectable=0;fillColor=none;top=0;left=0;bottom=0;right=0;overflow=hidden;pointerEvents=1;fontSize=12;" parent="36" vertex="1">
                    <mxGeometry x="160" width="110" height="20" as="geometry">
                        <mxRectangle width="110" height="20" as="alternateBounds"/>
                    </mxGeometry>
                </mxCell>
                <mxCell id="40" value="1g" style="shape=partialRectangle;html=1;whiteSpace=wrap;connectable=0;fillColor=none;top=0;left=0;bottom=0;right=0;overflow=hidden;pointerEvents=1;fontSize=12;fontStyle=1;fontColor=#FF0000;" parent="36" vertex="1">
                    <mxGeometry x="270" width="110" height="20" as="geometry">
                        <mxRectangle width="110" height="20" as="alternateBounds"/>
                    </mxGeometry>
                </mxCell>
                <mxCell id="81" value="直近の摂取カロリー" style="text;html=1;strokeColor=none;fillColor=none;align=center;verticalAlign=middle;whiteSpace=wrap;rounded=0;fontSize=12;" parent="1" vertex="1">
                    <mxGeometry x="153" y="112" width="110" height="30" as="geometry"/>
                </mxCell>
                <mxCell id="82" value="横軸：日、縦軸：カロリーで&lt;br&gt;1週間をグラフに" style="text;html=1;strokeColor=none;fillColor=none;align=center;verticalAlign=middle;whiteSpace=wrap;rounded=0;fontSize=12;fontStyle=1" parent="1" vertex="1">
                    <mxGeometry x="177.5" y="170" width="175" height="30" as="geometry"/>
                </mxCell>
                <mxCell id="83" value="" style="rounded=0;whiteSpace=wrap;html=1;fontSize=16;" parent="1" vertex="1">
                    <mxGeometry x="390" y="110" width="140" height="110" as="geometry"/>
                </mxCell>
                <mxCell id="84" value="連続目標達成" style="text;html=1;strokeColor=none;fillColor=none;align=center;verticalAlign=middle;whiteSpace=wrap;rounded=0;fontSize=12;" parent="1" vertex="1">
                    <mxGeometry x="390" y="112" width="80" height="30" as="geometry"/>
                </mxCell>
                <mxCell id="86" value="&lt;font style=&quot;font-size: 18px;&quot;&gt;〇日&lt;/font&gt;" style="text;html=1;strokeColor=none;fillColor=none;align=center;verticalAlign=middle;whiteSpace=wrap;rounded=0;fontSize=12;fontStyle=1" parent="1" vertex="1">
                    <mxGeometry x="435" y="150" width="50" height="30" as="geometry"/>
                </mxCell>
                <mxCell id="89" value="・目標数値×0.9～目標数値×1.1：黒字&lt;br&gt;・目標数値未達　　　　　　　：&lt;font color=&quot;#0000ff&quot;&gt;青字&lt;/font&gt;&lt;br&gt;・目標数値超え　　　　　　　：&lt;font color=&quot;#ff0000&quot;&gt;赤字&lt;/font&gt;" style="text;html=1;strokeColor=none;fillColor=none;align=left;verticalAlign=middle;whiteSpace=wrap;rounded=0;fontSize=12;fontColor=#000000;" parent="1" vertex="1">
                    <mxGeometry x="550" y="300" width="220" height="50" as="geometry"/>
                </mxCell>
                <mxCell id="90" value="ハンバーガーメニュー押下で&lt;br&gt;3つのボタンはアイコン表示となる" style="text;html=1;strokeColor=none;fillColor=none;align=left;verticalAlign=middle;whiteSpace=wrap;rounded=0;fontSize=12;fontColor=#000000;" parent="1" vertex="1">
                    <mxGeometry x="-140" y="56.5" width="190" height="50" as="geometry"/>
                </mxCell>
                <mxCell id="91" value="食事登録ページ" style="text;html=1;strokeColor=none;fillColor=none;align=center;verticalAlign=middle;whiteSpace=wrap;rounded=0;fontStyle=1;fontSize=16;" parent="1" vertex="1">
                    <mxGeometry x="20" y="390" width="120" height="30" as="geometry"/>
                </mxCell>
                <mxCell id="92" value="" style="rounded=0;whiteSpace=wrap;html=1;fontSize=16;" parent="1" vertex="1">
                    <mxGeometry x="60" y="430" width="480" height="40" as="geometry"/>
                </mxCell>
                <mxCell id="93" value="ショクカン" style="text;html=1;strokeColor=none;fillColor=none;align=center;verticalAlign=middle;whiteSpace=wrap;rounded=0;fontStyle=0;fontSize=16;" parent="1" vertex="1">
                    <mxGeometry x="100" y="435" width="120" height="30" as="geometry"/>
                </mxCell>
                <mxCell id="94" value="" style="group" parent="1" vertex="1" connectable="0">
                    <mxGeometry x="71" y="445" width="20" height="13" as="geometry"/>
                </mxCell>
                <mxCell id="95" value="" style="endArrow=none;html=1;fontSize=16;" parent="94" edge="1">
                    <mxGeometry width="50" height="50" relative="1" as="geometry">
                        <mxPoint x="20" as="sourcePoint"/>
                        <mxPoint as="targetPoint"/>
                    </mxGeometry>
                </mxCell>
                <mxCell id="96" value="" style="endArrow=none;html=1;fontSize=16;" parent="94" edge="1">
                    <mxGeometry width="50" height="50" relative="1" as="geometry">
                        <mxPoint x="20" y="6" as="sourcePoint"/>
                        <mxPoint y="6" as="targetPoint"/>
                    </mxGeometry>
                </mxCell>
                <mxCell id="97" value="" style="endArrow=none;html=1;fontSize=16;" parent="94" edge="1">
                    <mxGeometry width="50" height="50" relative="1" as="geometry">
                        <mxPoint x="20" y="13" as="sourcePoint"/>
                        <mxPoint y="13" as="targetPoint"/>
                    </mxGeometry>
                </mxCell>
                <mxCell id="98" value="" style="rounded=0;whiteSpace=wrap;html=1;fontSize=16;" parent="1" vertex="1">
                    <mxGeometry x="60" y="470" width="80" height="260" as="geometry"/>
                </mxCell>
                <mxCell id="99" value="食事登録" style="rounded=1;whiteSpace=wrap;html=1;fontSize=16;" parent="1" vertex="1">
                    <mxGeometry x="60" y="480" width="80" height="30" as="geometry"/>
                </mxCell>
                <mxCell id="100" value="食事照会" style="rounded=1;whiteSpace=wrap;html=1;fontSize=16;" parent="1" vertex="1">
                    <mxGeometry x="60" y="520" width="80" height="30" as="geometry"/>
                </mxCell>
                <mxCell id="101" value="料理設定" style="rounded=1;whiteSpace=wrap;html=1;fontSize=16;" parent="1" vertex="1">
                    <mxGeometry x="60" y="560" width="80" height="30" as="geometry"/>
                </mxCell>
                <mxCell id="103" value="" style="rounded=0;whiteSpace=wrap;html=1;" parent="1" vertex="1">
                    <mxGeometry x="60" y="810" width="480" height="300" as="geometry"/>
                </mxCell>
                <mxCell id="104" value="" style="rounded=0;whiteSpace=wrap;html=1;fontSize=16;" parent="1" vertex="1">
                    <mxGeometry x="60" y="810" width="480" height="40" as="geometry"/>
                </mxCell>
                <mxCell id="105" value="ショクカン" style="text;html=1;strokeColor=none;fillColor=none;align=center;verticalAlign=middle;whiteSpace=wrap;rounded=0;fontStyle=0;fontSize=16;" parent="1" vertex="1">
                    <mxGeometry x="100" y="815" width="120" height="30" as="geometry"/>
                </mxCell>
                <mxCell id="106" value="" style="group" parent="1" vertex="1" connectable="0">
                    <mxGeometry x="71" y="825" width="20" height="13" as="geometry"/>
                </mxCell>
                <mxCell id="107" value="" style="endArrow=none;html=1;fontSize=16;" parent="106" edge="1">
                    <mxGeometry width="50" height="50" relative="1" as="geometry">
                        <mxPoint x="20" as="sourcePoint"/>
                        <mxPoint as="targetPoint"/>
                    </mxGeometry>
                </mxCell>
                <mxCell id="108" value="" style="endArrow=none;html=1;fontSize=16;" parent="106" edge="1">
                    <mxGeometry width="50" height="50" relative="1" as="geometry">
                        <mxPoint x="20" y="6" as="sourcePoint"/>
                        <mxPoint y="6" as="targetPoint"/>
                    </mxGeometry>
                </mxCell>
                <mxCell id="109" value="" style="endArrow=none;html=1;fontSize=16;" parent="106" edge="1">
                    <mxGeometry width="50" height="50" relative="1" as="geometry">
                        <mxPoint x="20" y="13" as="sourcePoint"/>
                        <mxPoint y="13" as="targetPoint"/>
                    </mxGeometry>
                </mxCell>
                <mxCell id="110" value="" style="rounded=0;whiteSpace=wrap;html=1;fontSize=16;" parent="1" vertex="1">
                    <mxGeometry x="60" y="850" width="80" height="260" as="geometry"/>
                </mxCell>
                <mxCell id="111" value="食事登録" style="rounded=1;whiteSpace=wrap;html=1;fontSize=16;" parent="1" vertex="1">
                    <mxGeometry x="60" y="860" width="80" height="30" as="geometry"/>
                </mxCell>
                <mxCell id="112" value="食事照会" style="rounded=1;whiteSpace=wrap;html=1;fontSize=16;" parent="1" vertex="1">
                    <mxGeometry x="60" y="900" width="80" height="30" as="geometry"/>
                </mxCell>
                <mxCell id="113" value="料理登録" style="rounded=1;whiteSpace=wrap;html=1;fontSize=16;" parent="1" vertex="1">
                    <mxGeometry x="60" y="940" width="80" height="30" as="geometry"/>
                </mxCell>
                <mxCell id="114" value="食事照会ページ" style="text;html=1;strokeColor=none;fillColor=none;align=center;verticalAlign=middle;whiteSpace=wrap;rounded=0;fontStyle=1;fontSize=16;" parent="1" vertex="1">
                    <mxGeometry x="20" y="770" width="120" height="30" as="geometry"/>
                </mxCell>
                <mxCell id="116" value="食事登録" style="text;html=1;strokeColor=none;fillColor=none;align=center;verticalAlign=middle;whiteSpace=wrap;rounded=0;fontStyle=0;fontSize=16;" parent="1" vertex="1">
                    <mxGeometry x="140" y="470" width="120" height="30" as="geometry"/>
                </mxCell>
                <mxCell id="117" value="料理名" style="text;html=1;strokeColor=none;fillColor=none;align=left;verticalAlign=middle;whiteSpace=wrap;rounded=0;fontStyle=0;fontSize=14;" parent="1" vertex="1">
                    <mxGeometry x="200" y="527" width="100" height="30" as="geometry"/>
                </mxCell>
                <mxCell id="125" value="" style="rounded=0;whiteSpace=wrap;html=1;labelBackgroundColor=#000000;fontSize=14;fontColor=#1e1e38;" parent="1" vertex="1">
                    <mxGeometry x="300" y="532" width="162" height="20" as="geometry"/>
                </mxCell>
                <mxCell id="126" value="選択" style="rounded=1;whiteSpace=wrap;html=1;labelBackgroundColor=none;fontSize=14;fontColor=#1e1e38;" parent="1" vertex="1">
                    <mxGeometry x="470" y="532" width="50" height="20" as="geometry"/>
                </mxCell>
                <mxCell id="127" value="熱量" style="text;html=1;strokeColor=none;fillColor=none;align=left;verticalAlign=middle;whiteSpace=wrap;rounded=0;fontStyle=0;fontSize=14;" parent="1" vertex="1">
                    <mxGeometry x="200" y="558" width="100" height="30" as="geometry"/>
                </mxCell>
                <mxCell id="128" value="タンパク質" style="text;html=1;strokeColor=none;fillColor=none;align=left;verticalAlign=middle;whiteSpace=wrap;rounded=0;fontStyle=0;fontSize=14;" parent="1" vertex="1">
                    <mxGeometry x="200" y="588" width="100" height="30" as="geometry"/>
                </mxCell>
                <mxCell id="129" value="脂質" style="text;html=1;strokeColor=none;fillColor=none;align=left;verticalAlign=middle;whiteSpace=wrap;rounded=0;fontStyle=0;fontSize=14;" parent="1" vertex="1">
                    <mxGeometry x="200" y="618" width="100" height="30" as="geometry"/>
                </mxCell>
                <mxCell id="130" value="炭水化物" style="text;html=1;strokeColor=none;fillColor=none;align=left;verticalAlign=middle;whiteSpace=wrap;rounded=0;fontStyle=0;fontSize=14;" parent="1" vertex="1">
                    <mxGeometry x="200" y="648" width="100" height="30" as="geometry"/>
                </mxCell>
                <mxCell id="131" value="食塩相当量" style="text;html=1;strokeColor=none;fillColor=none;align=left;verticalAlign=middle;whiteSpace=wrap;rounded=0;fontStyle=0;fontSize=14;" parent="1" vertex="1">
                    <mxGeometry x="200" y="678" width="100" height="30" as="geometry"/>
                </mxCell>
                <mxCell id="132" value="" style="rounded=0;whiteSpace=wrap;html=1;labelBackgroundColor=#000000;fontSize=14;fontColor=#1e1e38;" parent="1" vertex="1">
                    <mxGeometry x="300" y="563" width="140" height="20" as="geometry"/>
                </mxCell>
                <mxCell id="133" value="" style="rounded=0;whiteSpace=wrap;html=1;labelBackgroundColor=#000000;fontSize=14;fontColor=#1e1e38;" parent="1" vertex="1">
                    <mxGeometry x="300" y="623" width="140" height="20" as="geometry"/>
                </mxCell>
                <mxCell id="134" value="" style="rounded=0;whiteSpace=wrap;html=1;labelBackgroundColor=#000000;fontSize=14;fontColor=#1e1e38;" parent="1" vertex="1">
                    <mxGeometry x="300" y="593" width="140" height="20" as="geometry"/>
                </mxCell>
                <mxCell id="135" value="" style="rounded=0;whiteSpace=wrap;html=1;labelBackgroundColor=#000000;fontSize=14;fontColor=#1e1e38;" parent="1" vertex="1">
                    <mxGeometry x="300" y="653" width="140" height="20" as="geometry"/>
                </mxCell>
                <mxCell id="136" value="" style="rounded=0;whiteSpace=wrap;html=1;labelBackgroundColor=#000000;fontSize=14;fontColor=#1e1e38;" parent="1" vertex="1">
                    <mxGeometry x="300" y="683" width="140" height="20" as="geometry"/>
                </mxCell>
                <mxCell id="137" value="摂取日" style="text;html=1;strokeColor=none;fillColor=none;align=left;verticalAlign=middle;whiteSpace=wrap;rounded=0;fontStyle=0;fontSize=14;" parent="1" vertex="1">
                    <mxGeometry x="199" y="499" width="100" height="30" as="geometry"/>
                </mxCell>
                <mxCell id="138" value="&lt;span style=&quot;background-color: rgb(255, 255, 255);&quot;&gt;2024/05/27&lt;/span&gt;" style="rounded=0;whiteSpace=wrap;html=1;labelBackgroundColor=#000000;fontSize=14;fontColor=#1e1e38;" parent="1" vertex="1">
                    <mxGeometry x="300" y="504" width="130" height="20" as="geometry"/>
                </mxCell>
                <mxCell id="139" value="登録" style="rounded=1;whiteSpace=wrap;html=1;labelBackgroundColor=none;fontSize=14;fontColor=#1e1e38;" parent="1" vertex="1">
                    <mxGeometry x="275" y="708" width="50" height="20" as="geometry"/>
                </mxCell>
                <mxCell id="140" value="" style="rounded=1;whiteSpace=wrap;html=1;labelBackgroundColor=none;fontSize=14;fontColor=#1e1e38;" parent="1" vertex="1">
                    <mxGeometry x="645" y="432" width="300" height="290" as="geometry"/>
                </mxCell>
                <mxCell id="141" value="" style="endArrow=classic;html=1;fontSize=14;fontColor=#1e1e38;exitX=1;exitY=0.5;exitDx=0;exitDy=0;entryX=0.003;entryY=0.379;entryDx=0;entryDy=0;entryPerimeter=0;" parent="1" source="126" target="140" edge="1">
                    <mxGeometry width="50" height="50" relative="1" as="geometry">
                        <mxPoint x="510" y="520" as="sourcePoint"/>
                        <mxPoint x="610" y="520" as="targetPoint"/>
                    </mxGeometry>
                </mxCell>
                <mxCell id="144" value="登録済み料理の選択" style="text;html=1;strokeColor=none;fillColor=none;align=center;verticalAlign=middle;whiteSpace=wrap;rounded=0;fontStyle=0;fontSize=16;" parent="1" vertex="1">
                    <mxGeometry x="660" y="445" width="165" height="30" as="geometry"/>
                </mxCell>
                <mxCell id="145" value="選択ボタン押下で&lt;br&gt;モーダルを表示" style="text;html=1;strokeColor=none;fillColor=none;align=left;verticalAlign=middle;whiteSpace=wrap;rounded=0;fontSize=12;fontColor=#000000;" parent="1" vertex="1">
                    <mxGeometry x="540" y="538" width="130" height="50" as="geometry"/>
                </mxCell>
                <mxCell id="146" value="" style="rounded=0;whiteSpace=wrap;html=1;labelBackgroundColor=#000000;fontSize=14;fontColor=#1e1e38;" parent="1" vertex="1">
                    <mxGeometry x="740" y="484" width="162" height="20" as="geometry"/>
                </mxCell>
                <mxCell id="147" value="料理名" style="text;html=1;strokeColor=none;fillColor=none;align=left;verticalAlign=middle;whiteSpace=wrap;rounded=0;fontStyle=0;fontSize=14;" parent="1" vertex="1">
                    <mxGeometry x="680" y="479" width="100" height="30" as="geometry"/>
                </mxCell>
                <mxCell id="148" value="部分一致検索とする" style="text;html=1;strokeColor=none;fillColor=none;align=left;verticalAlign=middle;whiteSpace=wrap;rounded=0;fontSize=12;fontColor=#000000;" parent="1" vertex="1">
                    <mxGeometry x="950" y="470" width="130" height="50" as="geometry"/>
                </mxCell>
                <mxCell id="149" value="" style="line;strokeWidth=2;html=1;labelBackgroundColor=none;fontSize=14;fontColor=#000000;strokeColor=#808080;" parent="1" vertex="1">
                    <mxGeometry x="700" y="545" width="190" height="10" as="geometry"/>
                </mxCell>
                <mxCell id="150" value="" style="line;strokeWidth=2;html=1;labelBackgroundColor=none;fontSize=14;fontColor=#000000;strokeColor=#808080;" parent="1" vertex="1">
                    <mxGeometry x="700" y="580" width="190" height="10" as="geometry"/>
                </mxCell>
                <mxCell id="151" value="&lt;font style=&quot;font-size: 14px;&quot;&gt;料理１&lt;/font&gt;" style="text;html=1;strokeColor=none;fillColor=none;align=left;verticalAlign=middle;whiteSpace=wrap;rounded=0;fontSize=12;fontColor=#000000;" parent="1" vertex="1">
                    <mxGeometry x="700" y="509" width="60" height="50" as="geometry"/>
                </mxCell>
                <mxCell id="152" value="&lt;font style=&quot;font-size: 14px;&quot;&gt;料理２&lt;/font&gt;" style="text;html=1;strokeColor=none;fillColor=none;align=left;verticalAlign=middle;whiteSpace=wrap;rounded=0;fontSize=12;fontColor=#000000;" parent="1" vertex="1">
                    <mxGeometry x="700" y="543" width="60" height="50" as="geometry"/>
                </mxCell>
                <mxCell id="153" value="決定" style="rounded=1;whiteSpace=wrap;html=1;labelBackgroundColor=none;fontSize=14;fontColor=#1e1e38;" parent="1" vertex="1">
                    <mxGeometry x="840" y="524" width="50" height="20" as="geometry"/>
                </mxCell>
                <mxCell id="155" value="決定" style="rounded=1;whiteSpace=wrap;html=1;labelBackgroundColor=none;fontSize=14;fontColor=#1e1e38;" parent="1" vertex="1">
                    <mxGeometry x="840" y="559" width="50" height="20" as="geometry"/>
                </mxCell>
                <mxCell id="156" value="" style="line;strokeWidth=2;html=1;labelBackgroundColor=none;fontSize=14;fontColor=#000000;strokeColor=#808080;" parent="1" vertex="1">
                    <mxGeometry x="700" y="670" width="190" height="10" as="geometry"/>
                </mxCell>
                <mxCell id="157" value="&lt;font style=&quot;font-size: 14px;&quot;&gt;料理１０&lt;/font&gt;" style="text;html=1;strokeColor=none;fillColor=none;align=left;verticalAlign=middle;whiteSpace=wrap;rounded=0;fontSize=12;fontColor=#000000;" parent="1" vertex="1">
                    <mxGeometry x="700" y="633" width="60" height="50" as="geometry"/>
                </mxCell>
                <mxCell id="158" value="決定" style="rounded=1;whiteSpace=wrap;html=1;labelBackgroundColor=none;fontSize=14;fontColor=#1e1e38;" parent="1" vertex="1">
                    <mxGeometry x="840" y="649" width="50" height="20" as="geometry"/>
                </mxCell>
                <mxCell id="160" value="決定ボタン押下で&lt;br&gt;摂取日以外の情報が&lt;br&gt;フォームに埋め込まれる" style="text;html=1;strokeColor=none;fillColor=none;align=left;verticalAlign=middle;whiteSpace=wrap;rounded=0;fontSize=12;fontColor=#000000;" parent="1" vertex="1">
                    <mxGeometry x="950" y="668" width="160" height="50" as="geometry"/>
                </mxCell>
                <mxCell id="161" value="デフォルトで今日の日付が入力される" style="text;html=1;strokeColor=none;fillColor=none;align=left;verticalAlign=middle;whiteSpace=wrap;rounded=0;fontSize=12;fontColor=#000000;" parent="1" vertex="1">
                    <mxGeometry x="251" y="480" width="210" height="21" as="geometry"/>
                </mxCell>
                <mxCell id="162" value="１" style="rounded=0;whiteSpace=wrap;html=1;labelBackgroundColor=#FFFFFF;strokeColor=#6c8ebf;fontSize=14;fillColor=#dae8fc;gradientColor=#7ea6e0;" parent="1" vertex="1">
                    <mxGeometry x="689" y="686" width="30" height="25" as="geometry"/>
                </mxCell>
                <mxCell id="163" value="２" style="rounded=0;whiteSpace=wrap;html=1;labelBackgroundColor=#FFFFFF;fontSize=14;" parent="1" vertex="1">
                    <mxGeometry x="727.5" y="686" width="30" height="25" as="geometry"/>
                </mxCell>
                <mxCell id="164" value="" style="endArrow=none;dashed=1;html=1;fontSize=14;fontColor=none;" parent="1" edge="1">
                    <mxGeometry width="50" height="50" relative="1" as="geometry">
                        <mxPoint x="794.5" y="648" as="sourcePoint"/>
                        <mxPoint x="794.5" y="598" as="targetPoint"/>
                    </mxGeometry>
                </mxCell>
                <mxCell id="165" value="" style="endArrow=none;dashed=1;html=1;fontSize=14;fontColor=none;" parent="1" edge="1">
                    <mxGeometry width="50" height="50" relative="1" as="geometry">
                        <mxPoint x="830" y="698" as="sourcePoint"/>
                        <mxPoint x="770" y="698" as="targetPoint"/>
                    </mxGeometry>
                </mxCell>
                <mxCell id="166" value="９" style="rounded=0;whiteSpace=wrap;html=1;labelBackgroundColor=#FFFFFF;fontSize=14;" parent="1" vertex="1">
                    <mxGeometry x="840" y="686" width="30" height="25" as="geometry"/>
                </mxCell>
                <mxCell id="167" value="１０" style="rounded=0;whiteSpace=wrap;html=1;labelBackgroundColor=#FFFFFF;fontSize=14;" parent="1" vertex="1">
                    <mxGeometry x="878.5" y="686" width="30" height="25" as="geometry"/>
                </mxCell>
                <mxCell id="168" value="検索結果が6件以上ある場合は、&lt;br&gt;ページネーションで5件ずつの表示とする。" style="text;html=1;strokeColor=none;fillColor=none;align=left;verticalAlign=middle;whiteSpace=wrap;rounded=0;fontSize=12;fontColor=#000000;" parent="1" vertex="1">
                    <mxGeometry x="680" y="718" width="250" height="50" as="geometry"/>
                </mxCell>
                <mxCell id="170" value="食事照会" style="text;html=1;strokeColor=none;fillColor=none;align=center;verticalAlign=middle;whiteSpace=wrap;rounded=0;fontStyle=0;fontSize=16;" parent="1" vertex="1">
                    <mxGeometry x="140" y="860" width="120" height="30" as="geometry"/>
                </mxCell>
                <mxCell id="171" value="照会期間" style="text;html=1;strokeColor=none;fillColor=none;align=left;verticalAlign=middle;whiteSpace=wrap;rounded=0;fontStyle=0;fontSize=14;" parent="1" vertex="1">
                    <mxGeometry x="180" y="890" width="70" height="30" as="geometry"/>
                </mxCell>
                <mxCell id="172" value="&lt;span style=&quot;background-color: rgb(255, 255, 255);&quot;&gt;2024/05/27&lt;/span&gt;" style="rounded=0;whiteSpace=wrap;html=1;labelBackgroundColor=#000000;fontSize=14;fontColor=#1e1e38;" parent="1" vertex="1">
                    <mxGeometry x="250" y="895" width="90" height="20" as="geometry"/>
                </mxCell>
                <mxCell id="173" value="&lt;span style=&quot;background-color: rgb(255, 255, 255);&quot;&gt;2024/05/27&lt;/span&gt;" style="rounded=0;whiteSpace=wrap;html=1;labelBackgroundColor=#000000;fontSize=14;fontColor=#1e1e38;" parent="1" vertex="1">
                    <mxGeometry x="372" y="895" width="90" height="20" as="geometry"/>
                </mxCell>
                <mxCell id="174" value="～" style="text;html=1;strokeColor=none;fillColor=none;align=left;verticalAlign=middle;whiteSpace=wrap;rounded=0;fontStyle=0;fontSize=14;" parent="1" vertex="1">
                    <mxGeometry x="346" y="891" width="25" height="30" as="geometry"/>
                </mxCell>
                <mxCell id="175" value="デフォルトで今日の日付が入力される" style="text;html=1;strokeColor=none;fillColor=none;align=left;verticalAlign=middle;whiteSpace=wrap;rounded=0;fontSize=12;fontColor=#000000;" parent="1" vertex="1">
                    <mxGeometry x="263" y="860" width="210" height="50" as="geometry"/>
                </mxCell>
                <mxCell id="176" value="照会対象" style="text;html=1;strokeColor=none;fillColor=none;align=left;verticalAlign=middle;whiteSpace=wrap;rounded=0;fontStyle=0;fontSize=14;" parent="1" vertex="1">
                    <mxGeometry x="180" y="920" width="70" height="30" as="geometry"/>
                </mxCell>
                <mxCell id="178" value="" style="whiteSpace=wrap;html=1;aspect=fixed;labelBackgroundColor=none;strokeColor=#808080;fontSize=14;fontColor=none;" parent="1" vertex="1">
                    <mxGeometry x="198" y="950" width="20" height="20" as="geometry"/>
                </mxCell>
                <mxCell id="179" value="食事履歴" style="text;html=1;strokeColor=none;fillColor=none;align=left;verticalAlign=middle;whiteSpace=wrap;rounded=0;fontStyle=0;fontSize=14;" parent="1" vertex="1">
                    <mxGeometry x="220" y="945" width="70" height="30" as="geometry"/>
                </mxCell>
                <mxCell id="180" value="" style="whiteSpace=wrap;html=1;aspect=fixed;labelBackgroundColor=none;strokeColor=#808080;fontSize=14;fontColor=none;" parent="1" vertex="1">
                    <mxGeometry x="299" y="950" width="20" height="20" as="geometry"/>
                </mxCell>
                <mxCell id="181" value="熱量" style="text;html=1;strokeColor=none;fillColor=none;align=left;verticalAlign=middle;whiteSpace=wrap;rounded=0;fontStyle=0;fontSize=14;" parent="1" vertex="1">
                    <mxGeometry x="321" y="945" width="70" height="30" as="geometry"/>
                </mxCell>
                <mxCell id="182" value="" style="whiteSpace=wrap;html=1;aspect=fixed;labelBackgroundColor=none;strokeColor=#808080;fontSize=14;fontColor=none;" parent="1" vertex="1">
                    <mxGeometry x="372" y="950" width="20" height="20" as="geometry"/>
                </mxCell>
                <mxCell id="183" value="タンパク質" style="text;html=1;strokeColor=none;fillColor=none;align=left;verticalAlign=middle;whiteSpace=wrap;rounded=0;fontStyle=0;fontSize=14;" parent="1" vertex="1">
                    <mxGeometry x="394" y="945" width="86" height="30" as="geometry"/>
                </mxCell>
                <mxCell id="187" value="" style="whiteSpace=wrap;html=1;aspect=fixed;labelBackgroundColor=none;strokeColor=#808080;fontSize=14;fontColor=none;" parent="1" vertex="1">
                    <mxGeometry x="198" y="980" width="20" height="20" as="geometry"/>
                </mxCell>
                <mxCell id="188" value="炭水化物" style="text;html=1;strokeColor=none;fillColor=none;align=left;verticalAlign=middle;whiteSpace=wrap;rounded=0;fontStyle=0;fontSize=14;" parent="1" vertex="1">
                    <mxGeometry x="220" y="975" width="70" height="30" as="geometry"/>
                </mxCell>
                <mxCell id="189" value="" style="whiteSpace=wrap;html=1;aspect=fixed;labelBackgroundColor=none;strokeColor=#808080;fontSize=14;fontColor=none;" parent="1" vertex="1">
                    <mxGeometry x="299" y="980" width="20" height="20" as="geometry"/>
                </mxCell>
                <mxCell id="190" value="脂質" style="text;html=1;strokeColor=none;fillColor=none;align=left;verticalAlign=middle;whiteSpace=wrap;rounded=0;fontStyle=0;fontSize=14;" parent="1" vertex="1">
                    <mxGeometry x="321" y="975" width="70" height="30" as="geometry"/>
                </mxCell>
                <mxCell id="191" value="" style="whiteSpace=wrap;html=1;aspect=fixed;labelBackgroundColor=none;strokeColor=#808080;fontSize=14;fontColor=none;" parent="1" vertex="1">
                    <mxGeometry x="372" y="980" width="20" height="20" as="geometry"/>
                </mxCell>
                <mxCell id="192" value="食塩相当量" style="text;html=1;strokeColor=none;fillColor=none;align=left;verticalAlign=middle;whiteSpace=wrap;rounded=0;fontStyle=0;fontSize=14;" parent="1" vertex="1">
                    <mxGeometry x="394" y="975" width="86" height="30" as="geometry"/>
                </mxCell>
                <mxCell id="193" value="チェックボックスにチェックを付けたものが照会される&lt;br&gt;デフォルトではすべてにチェックを入れておく" style="text;html=1;strokeColor=none;fillColor=none;align=left;verticalAlign=middle;whiteSpace=wrap;rounded=0;fontSize=12;fontColor=#000000;" parent="1" vertex="1">
                    <mxGeometry x="176.5" y="1040" width="327" height="50" as="geometry"/>
                </mxCell>
                <mxCell id="194" value="✓" style="text;html=1;strokeColor=none;fillColor=none;align=left;verticalAlign=middle;whiteSpace=wrap;rounded=0;fontSize=12;fontColor=#000000;" parent="1" vertex="1">
                    <mxGeometry x="200" y="935" width="20" height="50" as="geometry"/>
                </mxCell>
                <mxCell id="195" value="✓" style="text;html=1;strokeColor=none;fillColor=none;align=left;verticalAlign=middle;whiteSpace=wrap;rounded=0;fontSize=12;fontColor=#000000;" parent="1" vertex="1">
                    <mxGeometry x="302" y="936" width="20" height="50" as="geometry"/>
                </mxCell>
                <mxCell id="196" value="✓" style="text;html=1;strokeColor=none;fillColor=none;align=left;verticalAlign=middle;whiteSpace=wrap;rounded=0;fontSize=12;fontColor=#000000;" parent="1" vertex="1">
                    <mxGeometry x="375" y="936" width="20" height="50" as="geometry"/>
                </mxCell>
                <mxCell id="197" value="✓" style="text;html=1;strokeColor=none;fillColor=none;align=left;verticalAlign=middle;whiteSpace=wrap;rounded=0;fontSize=12;fontColor=#000000;" parent="1" vertex="1">
                    <mxGeometry x="201" y="966" width="20" height="50" as="geometry"/>
                </mxCell>
                <mxCell id="198" value="✓" style="text;html=1;strokeColor=none;fillColor=none;align=left;verticalAlign=middle;whiteSpace=wrap;rounded=0;fontSize=12;fontColor=#000000;" parent="1" vertex="1">
                    <mxGeometry x="302" y="966" width="20" height="50" as="geometry"/>
                </mxCell>
                <mxCell id="199" value="✓" style="text;html=1;strokeColor=none;fillColor=none;align=left;verticalAlign=middle;whiteSpace=wrap;rounded=0;fontSize=12;fontColor=#000000;" parent="1" vertex="1">
                    <mxGeometry x="376" y="966" width="20" height="50" as="geometry"/>
                </mxCell>
                <mxCell id="200" value="照会" style="rounded=1;whiteSpace=wrap;html=1;labelBackgroundColor=none;fontSize=14;fontColor=#1e1e38;" parent="1" vertex="1">
                    <mxGeometry x="300" y="1010" width="50" height="20" as="geometry"/>
                </mxCell>
                <mxCell id="202" value="&lt;span style=&quot;background-color: rgb(255, 255, 255);&quot;&gt;朝&lt;/span&gt;" style="rounded=0;whiteSpace=wrap;html=1;labelBackgroundColor=#000000;fontSize=14;fontColor=#1e1e38;" parent="1" vertex="1">
                    <mxGeometry x="435" y="504" width="25" height="20" as="geometry"/>
                </mxCell>
                <mxCell id="203" value="朝・昼・夕から選択" style="text;html=1;strokeColor=none;fillColor=none;align=left;verticalAlign=middle;whiteSpace=wrap;rounded=0;fontSize=12;fontColor=#000000;" parent="1" vertex="1">
                    <mxGeometry x="462" y="499" width="120" height="21" as="geometry"/>
                </mxCell>
                <mxCell id="205" value="食事履歴は摂取日、料理名、各成分表示を項目として表で出力する。&lt;br&gt;その他は、日ごとの合計で期間指定におけるグラフを出力する。" style="text;html=1;strokeColor=none;fillColor=none;align=left;verticalAlign=middle;whiteSpace=wrap;rounded=0;fontSize=12;fontColor=#000000;" parent="1" vertex="1">
                    <mxGeometry x="730" y="1010" width="380" height="50" as="geometry"/>
                </mxCell>
                <mxCell id="206" value="料理登録ページ" style="text;html=1;strokeColor=none;fillColor=none;align=center;verticalAlign=middle;whiteSpace=wrap;rounded=0;fontStyle=1;fontSize=16;" parent="1" vertex="1">
                    <mxGeometry x="20" y="1130" width="120" height="30" as="geometry"/>
                </mxCell>
                <mxCell id="207" value="" style="rounded=0;whiteSpace=wrap;html=1;" parent="1" vertex="1">
                    <mxGeometry x="60" y="1170" width="480" height="300" as="geometry"/>
                </mxCell>
                <mxCell id="208" value="" style="rounded=0;whiteSpace=wrap;html=1;fontSize=16;" parent="1" vertex="1">
                    <mxGeometry x="60" y="1170" width="480" height="40" as="geometry"/>
                </mxCell>
                <mxCell id="209" value="ショクカン" style="text;html=1;strokeColor=none;fillColor=none;align=center;verticalAlign=middle;whiteSpace=wrap;rounded=0;fontStyle=0;fontSize=16;" parent="1" vertex="1">
                    <mxGeometry x="100" y="1175" width="120" height="30" as="geometry"/>
                </mxCell>
                <mxCell id="210" value="" style="group" parent="1" vertex="1" connectable="0">
                    <mxGeometry x="71" y="1185" width="20" height="13" as="geometry"/>
                </mxCell>
                <mxCell id="211" value="" style="endArrow=none;html=1;fontSize=16;" parent="210" edge="1">
                    <mxGeometry width="50" height="50" relative="1" as="geometry">
                        <mxPoint x="20" as="sourcePoint"/>
                        <mxPoint as="targetPoint"/>
                    </mxGeometry>
                </mxCell>
                <mxCell id="212" value="" style="endArrow=none;html=1;fontSize=16;" parent="210" edge="1">
                    <mxGeometry width="50" height="50" relative="1" as="geometry">
                        <mxPoint x="20" y="6" as="sourcePoint"/>
                        <mxPoint y="6" as="targetPoint"/>
                    </mxGeometry>
                </mxCell>
                <mxCell id="213" value="" style="endArrow=none;html=1;fontSize=16;" parent="210" edge="1">
                    <mxGeometry width="50" height="50" relative="1" as="geometry">
                        <mxPoint x="20" y="13" as="sourcePoint"/>
                        <mxPoint y="13" as="targetPoint"/>
                    </mxGeometry>
                </mxCell>
                <mxCell id="214" value="" style="rounded=0;whiteSpace=wrap;html=1;fontSize=16;" parent="1" vertex="1">
                    <mxGeometry x="60" y="1210" width="80" height="260" as="geometry"/>
                </mxCell>
                <mxCell id="215" value="食事登録" style="rounded=1;whiteSpace=wrap;html=1;fontSize=16;" parent="1" vertex="1">
                    <mxGeometry x="60" y="1220" width="80" height="30" as="geometry"/>
                </mxCell>
                <mxCell id="216" value="食事照会" style="rounded=1;whiteSpace=wrap;html=1;fontSize=16;fillColor=#FFFFFF;strokeColor=#000000;" parent="1" vertex="1">
                    <mxGeometry x="60" y="1260" width="80" height="30" as="geometry"/>
                </mxCell>
                <mxCell id="217" value="料理登録" style="rounded=1;whiteSpace=wrap;html=1;fontSize=16;" parent="1" vertex="1">
                    <mxGeometry x="60" y="1300" width="80" height="30" as="geometry"/>
                </mxCell>
                <mxCell id="219" value="料理登録" style="text;html=1;strokeColor=none;fillColor=none;align=center;verticalAlign=middle;whiteSpace=wrap;rounded=0;fontStyle=0;fontSize=16;" parent="1" vertex="1">
                    <mxGeometry x="131" y="1210" width="120" height="30" as="geometry"/>
                </mxCell>
                <mxCell id="220" value="料理名" style="text;html=1;strokeColor=none;fillColor=none;align=left;verticalAlign=middle;whiteSpace=wrap;rounded=0;fontStyle=0;fontSize=14;" parent="1" vertex="1">
                    <mxGeometry x="194" y="1240" width="100" height="30" as="geometry"/>
                </mxCell>
                <mxCell id="221" value="" style="rounded=0;whiteSpace=wrap;html=1;labelBackgroundColor=#000000;fontSize=14;fontColor=#1e1e38;" parent="1" vertex="1">
                    <mxGeometry x="294" y="1245" width="162" height="20" as="geometry"/>
                </mxCell>
                <mxCell id="222" value="熱量" style="text;html=1;strokeColor=none;fillColor=none;align=left;verticalAlign=middle;whiteSpace=wrap;rounded=0;fontStyle=0;fontSize=14;" parent="1" vertex="1">
                    <mxGeometry x="194" y="1271" width="100" height="30" as="geometry"/>
                </mxCell>
                <mxCell id="223" value="タンパク質" style="text;html=1;strokeColor=none;fillColor=none;align=left;verticalAlign=middle;whiteSpace=wrap;rounded=0;fontStyle=0;fontSize=14;" parent="1" vertex="1">
                    <mxGeometry x="194" y="1301" width="100" height="30" as="geometry"/>
                </mxCell>
                <mxCell id="224" value="脂質" style="text;html=1;strokeColor=none;fillColor=none;align=left;verticalAlign=middle;whiteSpace=wrap;rounded=0;fontStyle=0;fontSize=14;" parent="1" vertex="1">
                    <mxGeometry x="194" y="1331" width="100" height="30" as="geometry"/>
                </mxCell>
                <mxCell id="225" value="炭水化物" style="text;html=1;strokeColor=none;fillColor=none;align=left;verticalAlign=middle;whiteSpace=wrap;rounded=0;fontStyle=0;fontSize=14;" parent="1" vertex="1">
                    <mxGeometry x="194" y="1361" width="100" height="30" as="geometry"/>
                </mxCell>
                <mxCell id="226" value="食塩相当量" style="text;html=1;strokeColor=none;fillColor=none;align=left;verticalAlign=middle;whiteSpace=wrap;rounded=0;fontStyle=0;fontSize=14;" parent="1" vertex="1">
                    <mxGeometry x="194" y="1391" width="100" height="30" as="geometry"/>
                </mxCell>
                <mxCell id="227" value="" style="rounded=0;whiteSpace=wrap;html=1;labelBackgroundColor=#000000;fontSize=14;fontColor=#1e1e38;" parent="1" vertex="1">
                    <mxGeometry x="294" y="1276" width="136" height="20" as="geometry"/>
                </mxCell>
                <mxCell id="228" value="" style="rounded=0;whiteSpace=wrap;html=1;labelBackgroundColor=#000000;fontSize=14;fontColor=#1e1e38;" parent="1" vertex="1">
                    <mxGeometry x="294" y="1336" width="136" height="20" as="geometry"/>
                </mxCell>
                <mxCell id="229" value="" style="rounded=0;whiteSpace=wrap;html=1;labelBackgroundColor=#000000;fontSize=14;fontColor=#1e1e38;" parent="1" vertex="1">
                    <mxGeometry x="294" y="1306" width="136" height="20" as="geometry"/>
                </mxCell>
                <mxCell id="230" value="" style="rounded=0;whiteSpace=wrap;html=1;labelBackgroundColor=#000000;fontSize=14;fontColor=#1e1e38;" parent="1" vertex="1">
                    <mxGeometry x="294" y="1366" width="136" height="20" as="geometry"/>
                </mxCell>
                <mxCell id="231" value="" style="rounded=0;whiteSpace=wrap;html=1;labelBackgroundColor=#000000;fontSize=14;fontColor=#1e1e38;" parent="1" vertex="1">
                    <mxGeometry x="294" y="1396" width="136" height="20" as="geometry"/>
                </mxCell>
                <mxCell id="232" value="kcal" style="text;html=1;strokeColor=none;fillColor=none;align=left;verticalAlign=middle;whiteSpace=wrap;rounded=0;fontStyle=0;fontSize=14;" parent="1" vertex="1">
                    <mxGeometry x="435" y="1271" width="100" height="30" as="geometry"/>
                </mxCell>
                <mxCell id="233" value="g" style="text;html=1;strokeColor=none;fillColor=none;align=left;verticalAlign=middle;whiteSpace=wrap;rounded=0;fontStyle=0;fontSize=14;" parent="1" vertex="1">
                    <mxGeometry x="438" y="1300" width="35" height="30" as="geometry"/>
                </mxCell>
                <mxCell id="234" value="g" style="text;html=1;strokeColor=none;fillColor=none;align=left;verticalAlign=middle;whiteSpace=wrap;rounded=0;fontStyle=0;fontSize=14;" parent="1" vertex="1">
                    <mxGeometry x="438" y="1330" width="35" height="30" as="geometry"/>
                </mxCell>
                <mxCell id="235" value="g" style="text;html=1;strokeColor=none;fillColor=none;align=left;verticalAlign=middle;whiteSpace=wrap;rounded=0;fontStyle=0;fontSize=14;" parent="1" vertex="1">
                    <mxGeometry x="438" y="1360" width="35" height="30" as="geometry"/>
                </mxCell>
                <mxCell id="236" value="g" style="text;html=1;strokeColor=none;fillColor=none;align=left;verticalAlign=middle;whiteSpace=wrap;rounded=0;fontStyle=0;fontSize=14;" parent="1" vertex="1">
                    <mxGeometry x="438" y="1390" width="35" height="30" as="geometry"/>
                </mxCell>
                <mxCell id="239" value="kcal" style="text;html=1;strokeColor=none;fillColor=none;align=left;verticalAlign=middle;whiteSpace=wrap;rounded=0;fontStyle=0;fontSize=14;" parent="1" vertex="1">
                    <mxGeometry x="445" y="560" width="100" height="30" as="geometry"/>
                </mxCell>
                <mxCell id="241" value="g" style="text;html=1;strokeColor=none;fillColor=none;align=left;verticalAlign=middle;whiteSpace=wrap;rounded=0;fontStyle=0;fontSize=14;" parent="1" vertex="1">
                    <mxGeometry x="448" y="617.5" width="35" height="30" as="geometry"/>
                </mxCell>
                <mxCell id="242" value="g" style="text;html=1;strokeColor=none;fillColor=none;align=left;verticalAlign=middle;whiteSpace=wrap;rounded=0;fontStyle=0;fontSize=14;" parent="1" vertex="1">
                    <mxGeometry x="448" y="647.5" width="35" height="30" as="geometry"/>
                </mxCell>
                <mxCell id="243" value="g" style="text;html=1;strokeColor=none;fillColor=none;align=left;verticalAlign=middle;whiteSpace=wrap;rounded=0;fontStyle=0;fontSize=14;" parent="1" vertex="1">
                    <mxGeometry x="448" y="677.5" width="35" height="30" as="geometry"/>
                </mxCell>
                <mxCell id="245" value="g" style="text;html=1;strokeColor=none;fillColor=none;align=left;verticalAlign=middle;whiteSpace=wrap;rounded=0;fontStyle=0;fontSize=14;" parent="1" vertex="1">
                    <mxGeometry x="448" y="588" width="35" height="30" as="geometry"/>
                </mxCell>
                <mxCell id="246" value="登録" style="rounded=1;whiteSpace=wrap;html=1;labelBackgroundColor=none;fontSize=14;fontColor=#1e1e38;" parent="1" vertex="1">
                    <mxGeometry x="284" y="1440" width="50" height="20" as="geometry"/>
                </mxCell>
                <mxCell id="247" value="&lt;font style=&quot;font-size: 11px;&quot;&gt;料理名は一意とする&lt;/font&gt;" style="text;html=1;strokeColor=none;fillColor=none;align=left;verticalAlign=middle;whiteSpace=wrap;rounded=0;fontStyle=0;fontSize=14;" parent="1" vertex="1">
                    <mxGeometry x="383.25" y="1220" width="107.5" height="30" as="geometry"/>
                </mxCell>
                <mxCell id="248" value="&lt;span style=&quot;font-size: 11px;&quot;&gt;成分量は数値縛り&lt;/span&gt;" style="text;html=1;strokeColor=none;fillColor=none;align=left;verticalAlign=middle;whiteSpace=wrap;rounded=0;fontStyle=0;fontSize=14;" parent="1" vertex="1">
                    <mxGeometry x="371" y="1410" width="107.5" height="30" as="geometry"/>
                </mxCell>
                <mxCell id="249" value="&lt;span style=&quot;font-size: 11px;&quot;&gt;すべて必須入力&lt;/span&gt;" style="text;html=1;strokeColor=none;fillColor=none;align=left;verticalAlign=middle;whiteSpace=wrap;rounded=0;fontStyle=0;fontSize=14;" parent="1" vertex="1">
                    <mxGeometry x="371" y="1430" width="107.5" height="30" as="geometry"/>
                </mxCell>
                <mxCell id="250" value="" style="rounded=0;whiteSpace=wrap;html=1;fontSize=16;" parent="1" vertex="1">
                    <mxGeometry x="625" y="810" width="480" height="40" as="geometry"/>
                </mxCell>
                <mxCell id="257" value="" style="rounded=0;whiteSpace=wrap;html=1;fontSize=16;" parent="1" vertex="1">
                    <mxGeometry x="625" y="850" width="80" height="260" as="geometry"/>
                </mxCell>
                <mxCell id="251" value="食事登録" style="rounded=1;whiteSpace=wrap;html=1;fontSize=16;" parent="1" vertex="1">
                    <mxGeometry x="625" y="860" width="80" height="30" as="geometry"/>
                </mxCell>
                <mxCell id="252" value="食事照会" style="rounded=1;whiteSpace=wrap;html=1;fontSize=16;" parent="1" vertex="1">
                    <mxGeometry x="625" y="900" width="80" height="30" as="geometry"/>
                </mxCell>
                <mxCell id="253" value="料理登録" style="rounded=1;whiteSpace=wrap;html=1;fontSize=16;" parent="1" vertex="1">
                    <mxGeometry x="625" y="940" width="80" height="30" as="geometry"/>
                </mxCell>
                <mxCell id="258" value="ショクカン" style="text;html=1;strokeColor=none;fillColor=none;align=center;verticalAlign=middle;whiteSpace=wrap;rounded=0;fontStyle=0;fontSize=16;" parent="1" vertex="1">
                    <mxGeometry x="669" y="815" width="120" height="30" as="geometry"/>
                </mxCell>
                <mxCell id="259" value="" style="group" parent="1" vertex="1" connectable="0">
                    <mxGeometry x="640" y="825" width="20" height="13" as="geometry"/>
                </mxCell>
                <mxCell id="260" value="" style="endArrow=none;html=1;fontSize=16;" parent="259" edge="1">
                    <mxGeometry width="50" height="50" relative="1" as="geometry">
                        <mxPoint x="20" as="sourcePoint"/>
                        <mxPoint as="targetPoint"/>
                    </mxGeometry>
                </mxCell>
                <mxCell id="261" value="" style="endArrow=none;html=1;fontSize=16;" parent="259" edge="1">
                    <mxGeometry width="50" height="50" relative="1" as="geometry">
                        <mxPoint x="20" y="6" as="sourcePoint"/>
                        <mxPoint y="6" as="targetPoint"/>
                    </mxGeometry>
                </mxCell>
                <mxCell id="262" value="" style="endArrow=none;html=1;fontSize=16;" parent="259" edge="1">
                    <mxGeometry width="50" height="50" relative="1" as="geometry">
                        <mxPoint x="20" y="13" as="sourcePoint"/>
                        <mxPoint y="13" as="targetPoint"/>
                    </mxGeometry>
                </mxCell>
                <mxCell id="263" value="食事照会結果" style="text;html=1;strokeColor=none;fillColor=none;align=center;verticalAlign=middle;whiteSpace=wrap;rounded=0;fontStyle=0;fontSize=16;" parent="1" vertex="1">
                    <mxGeometry x="720" y="860" width="120" height="30" as="geometry"/>
                </mxCell>
                <mxCell id="264" value="食事履歴" style="text;html=1;strokeColor=none;fillColor=none;align=left;verticalAlign=middle;whiteSpace=wrap;rounded=0;fontStyle=0;fontSize=14;" parent="1" vertex="1">
                    <mxGeometry x="745" y="890" width="70" height="30" as="geometry"/>
                </mxCell>
                <mxCell id="265" value="" style="shape=table;html=1;whiteSpace=wrap;startSize=0;container=1;collapsible=0;childLayout=tableLayout;fontSize=16;" parent="1" vertex="1">
                    <mxGeometry x="719" y="921" width="621" height="40" as="geometry"/>
                </mxCell>
                <mxCell id="266" value="" style="shape=tableRow;horizontal=0;startSize=0;swimlaneHead=0;swimlaneBody=0;top=0;left=0;bottom=0;right=0;collapsible=0;dropTarget=0;fillColor=none;points=[[0,0.5],[1,0.5]];portConstraint=eastwest;fontSize=16;fontStyle=1" parent="265" vertex="1">
                    <mxGeometry width="621" height="20" as="geometry"/>
                </mxCell>
                <mxCell id="267" value="&lt;span style=&quot;font-size: 14px;&quot;&gt;No.&lt;/span&gt;" style="shape=partialRectangle;html=1;whiteSpace=wrap;connectable=0;fillColor=none;top=0;left=0;bottom=0;right=0;overflow=hidden;fontSize=14;fontStyle=1" parent="266" vertex="1">
                    <mxGeometry width="31" height="20" as="geometry">
                        <mxRectangle width="31" height="20" as="alternateBounds"/>
                    </mxGeometry>
                </mxCell>
                <mxCell id="268" value="日付&lt;span style=&quot;white-space: pre;&quot;&gt;&#9;&lt;/span&gt;" style="shape=partialRectangle;html=1;whiteSpace=wrap;connectable=0;fillColor=none;top=0;left=0;bottom=0;right=0;overflow=hidden;fontSize=14;fontStyle=1" parent="266" vertex="1">
                    <mxGeometry x="31" width="80" height="20" as="geometry">
                        <mxRectangle width="80" height="20" as="alternateBounds"/>
                    </mxGeometry>
                </mxCell>
                <mxCell id="269" value="時間&lt;span style=&quot;white-space: pre;&quot;&gt;&#9;&lt;/span&gt;" style="shape=partialRectangle;html=1;whiteSpace=wrap;connectable=0;fillColor=none;top=0;left=0;bottom=0;right=0;overflow=hidden;fontSize=14;fontStyle=1" parent="266" vertex="1">
                    <mxGeometry x="111" width="40" height="20" as="geometry">
                        <mxRectangle width="40" height="20" as="alternateBounds"/>
                    </mxGeometry>
                </mxCell>
                <mxCell id="270" value="料理名" style="shape=partialRectangle;html=1;whiteSpace=wrap;connectable=0;fillColor=none;top=0;left=0;bottom=0;right=0;overflow=hidden;fontSize=14;fontStyle=1" parent="266" vertex="1">
                    <mxGeometry x="151" width="90" height="20" as="geometry">
                        <mxRectangle width="90" height="20" as="alternateBounds"/>
                    </mxGeometry>
                </mxCell>
                <mxCell id="300" value="熱量" style="shape=partialRectangle;html=1;whiteSpace=wrap;connectable=0;fillColor=none;top=0;left=0;bottom=0;right=0;overflow=hidden;fontSize=14;fontStyle=1" parent="266" vertex="1">
                    <mxGeometry x="241" width="60" height="20" as="geometry">
                        <mxRectangle width="60" height="20" as="alternateBounds"/>
                    </mxGeometry>
                </mxCell>
                <mxCell id="302" value="タンパク質" style="shape=partialRectangle;html=1;whiteSpace=wrap;connectable=0;fillColor=none;top=0;left=0;bottom=0;right=0;overflow=hidden;fontSize=14;fontStyle=1" parent="266" vertex="1">
                    <mxGeometry x="301" width="80" height="20" as="geometry">
                        <mxRectangle width="80" height="20" as="alternateBounds"/>
                    </mxGeometry>
                </mxCell>
                <mxCell id="304" value="炭水化物" style="shape=partialRectangle;html=1;whiteSpace=wrap;connectable=0;fillColor=none;top=0;left=0;bottom=0;right=0;overflow=hidden;fontSize=14;fontStyle=1" parent="266" vertex="1">
                    <mxGeometry x="381" width="80" height="20" as="geometry">
                        <mxRectangle width="80" height="20" as="alternateBounds"/>
                    </mxGeometry>
                </mxCell>
                <mxCell id="308" value="脂質" style="shape=partialRectangle;html=1;whiteSpace=wrap;connectable=0;fillColor=none;top=0;left=0;bottom=0;right=0;overflow=hidden;fontSize=14;fontStyle=1" parent="266" vertex="1">
                    <mxGeometry x="461" width="80" height="20" as="geometry">
                        <mxRectangle width="80" height="20" as="alternateBounds"/>
                    </mxGeometry>
                </mxCell>
                <mxCell id="306" value="食塩相当量" style="shape=partialRectangle;html=1;whiteSpace=wrap;connectable=0;fillColor=none;top=0;left=0;bottom=0;right=0;overflow=hidden;fontSize=14;fontStyle=1" parent="266" vertex="1">
                    <mxGeometry x="541" width="80" height="20" as="geometry">
                        <mxRectangle width="80" height="20" as="alternateBounds"/>
                    </mxGeometry>
                </mxCell>
                <mxCell id="271" value="" style="shape=tableRow;horizontal=0;startSize=0;swimlaneHead=0;swimlaneBody=0;top=0;left=0;bottom=0;right=0;collapsible=0;dropTarget=0;fillColor=none;points=[[0,0.5],[1,0.5]];portConstraint=eastwest;fontSize=16;" parent="265" vertex="1">
                    <mxGeometry y="20" width="621" height="20" as="geometry"/>
                </mxCell>
                <mxCell id="272" value="1" style="shape=partialRectangle;html=1;whiteSpace=wrap;connectable=0;fillColor=none;top=0;left=0;bottom=0;right=0;overflow=hidden;fontSize=12;" parent="271" vertex="1">
                    <mxGeometry width="31" height="20" as="geometry">
                        <mxRectangle width="31" height="20" as="alternateBounds"/>
                    </mxGeometry>
                </mxCell>
                <mxCell id="273" value="2024/06/01" style="shape=partialRectangle;html=1;whiteSpace=wrap;connectable=0;fillColor=none;top=0;left=0;bottom=0;right=0;overflow=hidden;fontSize=12;" parent="271" vertex="1">
                    <mxGeometry x="31" width="80" height="20" as="geometry">
                        <mxRectangle width="80" height="20" as="alternateBounds"/>
                    </mxGeometry>
                </mxCell>
                <mxCell id="274" value="昼" style="shape=partialRectangle;html=1;whiteSpace=wrap;connectable=0;fillColor=none;top=0;left=0;bottom=0;right=0;overflow=hidden;fontSize=12;" parent="271" vertex="1">
                    <mxGeometry x="111" width="40" height="20" as="geometry">
                        <mxRectangle width="40" height="20" as="alternateBounds"/>
                    </mxGeometry>
                </mxCell>
                <mxCell id="275" value="チャーハン" style="shape=partialRectangle;html=1;whiteSpace=wrap;connectable=0;fillColor=none;top=0;left=0;bottom=0;right=0;overflow=hidden;fontSize=12;fontColor=#0000FF;fontStyle=1" parent="271" vertex="1">
                    <mxGeometry x="151" width="90" height="20" as="geometry">
                        <mxRectangle width="90" height="20" as="alternateBounds"/>
                    </mxGeometry>
                </mxCell>
                <mxCell id="301" value="500" style="shape=partialRectangle;html=1;whiteSpace=wrap;connectable=0;fillColor=none;top=0;left=0;bottom=0;right=0;overflow=hidden;fontSize=12;fontColor=#0000FF;fontStyle=1" parent="271" vertex="1">
                    <mxGeometry x="241" width="60" height="20" as="geometry">
                        <mxRectangle width="60" height="20" as="alternateBounds"/>
                    </mxGeometry>
                </mxCell>
                <mxCell id="303" value="12" style="shape=partialRectangle;html=1;whiteSpace=wrap;connectable=0;fillColor=none;top=0;left=0;bottom=0;right=0;overflow=hidden;fontSize=12;fontColor=#0000FF;fontStyle=1" parent="271" vertex="1">
                    <mxGeometry x="301" width="80" height="20" as="geometry">
                        <mxRectangle width="80" height="20" as="alternateBounds"/>
                    </mxGeometry>
                </mxCell>
                <mxCell id="305" value="40" style="shape=partialRectangle;html=1;whiteSpace=wrap;connectable=0;fillColor=none;top=0;left=0;bottom=0;right=0;overflow=hidden;fontSize=12;fontColor=#0000FF;fontStyle=1" parent="271" vertex="1">
                    <mxGeometry x="381" width="80" height="20" as="geometry">
                        <mxRectangle width="80" height="20" as="alternateBounds"/>
                    </mxGeometry>
                </mxCell>
                <mxCell id="309" value="25" style="shape=partialRectangle;html=1;whiteSpace=wrap;connectable=0;fillColor=none;top=0;left=0;bottom=0;right=0;overflow=hidden;fontSize=12;fontColor=#0000FF;fontStyle=1" parent="271" vertex="1">
                    <mxGeometry x="461" width="80" height="20" as="geometry">
                        <mxRectangle width="80" height="20" as="alternateBounds"/>
                    </mxGeometry>
                </mxCell>
                <mxCell id="307" value="4.2" style="shape=partialRectangle;html=1;whiteSpace=wrap;connectable=0;fillColor=none;top=0;left=0;bottom=0;right=0;overflow=hidden;fontSize=12;fontColor=#0000FF;fontStyle=1" parent="271" vertex="1">
                    <mxGeometry x="541" width="80" height="20" as="geometry">
                        <mxRectangle width="80" height="20" as="alternateBounds"/>
                    </mxGeometry>
                </mxCell>
                <mxCell id="310" value="熱量" style="text;html=1;strokeColor=none;fillColor=none;align=left;verticalAlign=middle;whiteSpace=wrap;rounded=0;fontStyle=0;fontSize=14;" parent="1" vertex="1">
                    <mxGeometry x="745" y="965" width="70" height="30" as="geometry"/>
                </mxCell>
                <mxCell id="311" value="照会ボタン&lt;br&gt;押下" style="text;html=1;strokeColor=none;fillColor=none;align=left;verticalAlign=middle;whiteSpace=wrap;rounded=0;fontSize=12;fontColor=#000000;" parent="1" vertex="1">
                    <mxGeometry x="545" y="1030" width="130" height="50" as="geometry"/>
                </mxCell>
                <mxCell id="312" value="" style="endArrow=classic;html=1;fontSize=14;fontColor=#1e1e38;exitX=1;exitY=0.5;exitDx=0;exitDy=0;entryX=0;entryY=0.5;entryDx=0;entryDy=0;" parent="1" source="200" target="257" edge="1">
                    <mxGeometry width="50" height="50" relative="1" as="geometry">
                        <mxPoint x="530" y="552" as="sourcePoint"/>
                        <mxPoint x="655.9000000000001" y="551.9100000000001" as="targetPoint"/>
                    </mxGeometry>
                </mxCell>
                <mxCell id="313" value="戻る" style="rounded=1;whiteSpace=wrap;html=1;labelBackgroundColor=none;fontSize=14;fontColor=#1e1e38;" parent="1" vertex="1">
                    <mxGeometry x="868.5" y="1080" width="50" height="20" as="geometry"/>
                </mxCell>
                <mxCell id="314" value="削除" style="rounded=1;whiteSpace=wrap;html=1;fontSize=16;" vertex="1" parent="1">
                    <mxGeometry x="60" y="230" width="80" height="30" as="geometry"/>
                </mxCell>
                <mxCell id="315" value="削除" style="rounded=1;whiteSpace=wrap;html=1;fontSize=16;" vertex="1" parent="1">
                    <mxGeometry x="60" y="603" width="80" height="30" as="geometry"/>
                </mxCell>
                <mxCell id="316" value="削除" style="rounded=1;whiteSpace=wrap;html=1;fontSize=16;" vertex="1" parent="1">
                    <mxGeometry x="60" y="980" width="80" height="30" as="geometry"/>
                </mxCell>
                <mxCell id="317" value="削除" style="rounded=1;whiteSpace=wrap;html=1;fontSize=16;" vertex="1" parent="1">
                    <mxGeometry x="625" y="985" width="80" height="30" as="geometry"/>
                </mxCell>
                <mxCell id="318" value="削除" style="rounded=1;whiteSpace=wrap;html=1;fontSize=16;" vertex="1" parent="1">
                    <mxGeometry x="60" y="1340" width="80" height="30" as="geometry"/>
                </mxCell>
                <mxCell id="319" value="削除ページ" style="text;html=1;strokeColor=none;fillColor=none;align=center;verticalAlign=middle;whiteSpace=wrap;rounded=0;fontStyle=1;fontSize=16;" vertex="1" parent="1">
                    <mxGeometry x="20" y="1500" width="120" height="30" as="geometry"/>
                </mxCell>
                <mxCell id="353" value="" style="rounded=0;whiteSpace=wrap;html=1;" vertex="1" parent="1">
                    <mxGeometry x="55" y="1540" width="480" height="300" as="geometry"/>
                </mxCell>
                <mxCell id="354" value="" style="rounded=0;whiteSpace=wrap;html=1;fontSize=16;" vertex="1" parent="1">
                    <mxGeometry x="55" y="1540" width="480" height="40" as="geometry"/>
                </mxCell>
                <mxCell id="355" value="ショクカン" style="text;html=1;strokeColor=none;fillColor=none;align=center;verticalAlign=middle;whiteSpace=wrap;rounded=0;fontStyle=0;fontSize=16;" vertex="1" parent="1">
                    <mxGeometry x="95" y="1545" width="120" height="30" as="geometry"/>
                </mxCell>
                <mxCell id="356" value="" style="group" vertex="1" connectable="0" parent="1">
                    <mxGeometry x="66" y="1555" width="20" height="13" as="geometry"/>
                </mxCell>
                <mxCell id="357" value="" style="endArrow=none;html=1;fontSize=16;" edge="1" parent="356">
                    <mxGeometry width="50" height="50" relative="1" as="geometry">
                        <mxPoint x="20" as="sourcePoint"/>
                        <mxPoint as="targetPoint"/>
                    </mxGeometry>
                </mxCell>
                <mxCell id="358" value="" style="endArrow=none;html=1;fontSize=16;" edge="1" parent="356">
                    <mxGeometry width="50" height="50" relative="1" as="geometry">
                        <mxPoint x="20" y="6" as="sourcePoint"/>
                        <mxPoint y="6" as="targetPoint"/>
                    </mxGeometry>
                </mxCell>
                <mxCell id="359" value="" style="endArrow=none;html=1;fontSize=16;" edge="1" parent="356">
                    <mxGeometry width="50" height="50" relative="1" as="geometry">
                        <mxPoint x="20" y="13" as="sourcePoint"/>
                        <mxPoint y="13" as="targetPoint"/>
                    </mxGeometry>
                </mxCell>
                <mxCell id="360" value="" style="rounded=0;whiteSpace=wrap;html=1;fontSize=16;" vertex="1" parent="1">
                    <mxGeometry x="55" y="1580" width="80" height="260" as="geometry"/>
                </mxCell>
                <mxCell id="361" value="食事登録" style="rounded=1;whiteSpace=wrap;html=1;fontSize=16;" vertex="1" parent="1">
                    <mxGeometry x="55" y="1590" width="80" height="30" as="geometry"/>
                </mxCell>
                <mxCell id="362" value="食事照会" style="rounded=1;whiteSpace=wrap;html=1;fontSize=16;fillColor=#FFFFFF;strokeColor=#000000;" vertex="1" parent="1">
                    <mxGeometry x="55" y="1630" width="80" height="30" as="geometry"/>
                </mxCell>
                <mxCell id="363" value="料理登録" style="rounded=1;whiteSpace=wrap;html=1;fontSize=16;" vertex="1" parent="1">
                    <mxGeometry x="55" y="1670" width="80" height="30" as="geometry"/>
                </mxCell>
                <mxCell id="364" value="削除" style="text;html=1;strokeColor=none;fillColor=none;align=center;verticalAlign=middle;whiteSpace=wrap;rounded=0;fontStyle=0;fontSize=16;" vertex="1" parent="1">
                    <mxGeometry x="126" y="1580" width="120" height="30" as="geometry"/>
                </mxCell>
                <mxCell id="386" value="削除" style="rounded=1;whiteSpace=wrap;html=1;fontSize=16;" vertex="1" parent="1">
                    <mxGeometry x="55" y="1710" width="80" height="30" as="geometry"/>
                </mxCell>
                <mxCell id="387" value="登録済みの料理や食事を削除できます" style="text;html=1;strokeColor=none;fillColor=none;align=center;verticalAlign=middle;whiteSpace=wrap;rounded=0;fontStyle=0;fontSize=12;" vertex="1" parent="1">
                    <mxGeometry x="218" y="1581" width="210.75" height="30" as="geometry"/>
                </mxCell>
                <mxCell id="388" value="" style="ellipse;whiteSpace=wrap;html=1;aspect=fixed;fontSize=12;fillColor=#000000;" vertex="1" parent="1">
                    <mxGeometry x="190" y="1611" width="20" height="20" as="geometry"/>
                </mxCell>
                <mxCell id="389" value="料理" style="text;html=1;strokeColor=none;fillColor=none;align=center;verticalAlign=middle;whiteSpace=wrap;rounded=0;fontStyle=0;fontSize=16;" vertex="1" parent="1">
                    <mxGeometry x="215" y="1606" width="49" height="30" as="geometry"/>
                </mxCell>
                <mxCell id="392" value="" style="ellipse;whiteSpace=wrap;html=1;aspect=fixed;fontSize=12;" vertex="1" parent="1">
                    <mxGeometry x="272" y="1611" width="20" height="20" as="geometry"/>
                </mxCell>
                <mxCell id="393" value="食事" style="text;html=1;strokeColor=none;fillColor=none;align=center;verticalAlign=middle;whiteSpace=wrap;rounded=0;fontStyle=0;fontSize=16;" vertex="1" parent="1">
                    <mxGeometry x="297" y="1606" width="49" height="30" as="geometry"/>
                </mxCell>
                <mxCell id="394" value="〈料理のラジオボタンを選択している場合〉" style="text;html=1;strokeColor=none;fillColor=none;align=center;verticalAlign=middle;whiteSpace=wrap;rounded=0;fontSize=12;" vertex="1" parent="1">
                    <mxGeometry x="305" y="1515" width="250" height="30" as="geometry"/>
                </mxCell>
                <mxCell id="395" value="" style="shape=table;html=1;whiteSpace=wrap;startSize=0;container=1;collapsible=0;childLayout=tableLayout;fontSize=16;" vertex="1" parent="1">
                    <mxGeometry x="162" y="1650" width="550" height="40" as="geometry"/>
                </mxCell>
                <mxCell id="396" value="" style="shape=tableRow;horizontal=0;startSize=0;swimlaneHead=0;swimlaneBody=0;top=0;left=0;bottom=0;right=0;collapsible=0;dropTarget=0;fillColor=none;points=[[0,0.5],[1,0.5]];portConstraint=eastwest;fontSize=16;fontStyle=1" vertex="1" parent="395">
                    <mxGeometry width="550" height="20" as="geometry"/>
                </mxCell>
                <mxCell id="400" value="料理名" style="shape=partialRectangle;html=1;whiteSpace=wrap;connectable=0;fillColor=none;top=0;left=0;bottom=0;right=0;overflow=hidden;fontSize=14;fontStyle=1" vertex="1" parent="396">
                    <mxGeometry width="90" height="20" as="geometry">
                        <mxRectangle width="90" height="20" as="alternateBounds"/>
                    </mxGeometry>
                </mxCell>
                <mxCell id="401" value="熱量" style="shape=partialRectangle;html=1;whiteSpace=wrap;connectable=0;fillColor=none;top=0;left=0;bottom=0;right=0;overflow=hidden;fontSize=14;fontStyle=1" vertex="1" parent="396">
                    <mxGeometry x="90" width="60" height="20" as="geometry">
                        <mxRectangle width="60" height="20" as="alternateBounds"/>
                    </mxGeometry>
                </mxCell>
                <mxCell id="402" value="タンパク質" style="shape=partialRectangle;html=1;whiteSpace=wrap;connectable=0;fillColor=none;top=0;left=0;bottom=0;right=0;overflow=hidden;fontSize=14;fontStyle=1" vertex="1" parent="396">
                    <mxGeometry x="150" width="80" height="20" as="geometry">
                        <mxRectangle width="80" height="20" as="alternateBounds"/>
                    </mxGeometry>
                </mxCell>
                <mxCell id="403" value="炭水化物" style="shape=partialRectangle;html=1;whiteSpace=wrap;connectable=0;fillColor=none;top=0;left=0;bottom=0;right=0;overflow=hidden;fontSize=14;fontStyle=1" vertex="1" parent="396">
                    <mxGeometry x="230" width="80" height="20" as="geometry">
                        <mxRectangle width="80" height="20" as="alternateBounds"/>
                    </mxGeometry>
                </mxCell>
                <mxCell id="404" value="脂質" style="shape=partialRectangle;html=1;whiteSpace=wrap;connectable=0;fillColor=none;top=0;left=0;bottom=0;right=0;overflow=hidden;fontSize=14;fontStyle=1" vertex="1" parent="396">
                    <mxGeometry x="310" width="80" height="20" as="geometry">
                        <mxRectangle width="80" height="20" as="alternateBounds"/>
                    </mxGeometry>
                </mxCell>
                <mxCell id="405" value="食塩相当量" style="shape=partialRectangle;html=1;whiteSpace=wrap;connectable=0;fillColor=none;top=0;left=0;bottom=0;right=0;overflow=hidden;fontSize=14;fontStyle=1" vertex="1" parent="396">
                    <mxGeometry x="390" width="80" height="20" as="geometry">
                        <mxRectangle width="80" height="20" as="alternateBounds"/>
                    </mxGeometry>
                </mxCell>
                <mxCell id="416" style="shape=partialRectangle;html=1;whiteSpace=wrap;connectable=0;fillColor=none;top=0;left=0;bottom=0;right=0;overflow=hidden;fontSize=14;fontStyle=1" vertex="1" parent="396">
                    <mxGeometry x="470" width="80" height="20" as="geometry">
                        <mxRectangle width="80" height="20" as="alternateBounds"/>
                    </mxGeometry>
                </mxCell>
                <mxCell id="406" value="" style="shape=tableRow;horizontal=0;startSize=0;swimlaneHead=0;swimlaneBody=0;top=0;left=0;bottom=0;right=0;collapsible=0;dropTarget=0;fillColor=none;points=[[0,0.5],[1,0.5]];portConstraint=eastwest;fontSize=16;" vertex="1" parent="395">
                    <mxGeometry y="20" width="550" height="20" as="geometry"/>
                </mxCell>
                <mxCell id="410" value="チャーハン" style="shape=partialRectangle;html=1;whiteSpace=wrap;connectable=0;fillColor=none;top=0;left=0;bottom=0;right=0;overflow=hidden;fontSize=12;fontColor=#0000FF;fontStyle=1" vertex="1" parent="406">
                    <mxGeometry width="90" height="20" as="geometry">
                        <mxRectangle width="90" height="20" as="alternateBounds"/>
                    </mxGeometry>
                </mxCell>
                <mxCell id="411" value="500" style="shape=partialRectangle;html=1;whiteSpace=wrap;connectable=0;fillColor=none;top=0;left=0;bottom=0;right=0;overflow=hidden;fontSize=12;fontColor=#0000FF;fontStyle=1" vertex="1" parent="406">
                    <mxGeometry x="90" width="60" height="20" as="geometry">
                        <mxRectangle width="60" height="20" as="alternateBounds"/>
                    </mxGeometry>
                </mxCell>
                <mxCell id="412" value="12" style="shape=partialRectangle;html=1;whiteSpace=wrap;connectable=0;fillColor=none;top=0;left=0;bottom=0;right=0;overflow=hidden;fontSize=12;fontColor=#0000FF;fontStyle=1" vertex="1" parent="406">
                    <mxGeometry x="150" width="80" height="20" as="geometry">
                        <mxRectangle width="80" height="20" as="alternateBounds"/>
                    </mxGeometry>
                </mxCell>
                <mxCell id="413" value="40" style="shape=partialRectangle;html=1;whiteSpace=wrap;connectable=0;fillColor=none;top=0;left=0;bottom=0;right=0;overflow=hidden;fontSize=12;fontColor=#0000FF;fontStyle=1" vertex="1" parent="406">
                    <mxGeometry x="230" width="80" height="20" as="geometry">
                        <mxRectangle width="80" height="20" as="alternateBounds"/>
                    </mxGeometry>
                </mxCell>
                <mxCell id="414" value="25" style="shape=partialRectangle;html=1;whiteSpace=wrap;connectable=0;fillColor=none;top=0;left=0;bottom=0;right=0;overflow=hidden;fontSize=12;fontColor=#0000FF;fontStyle=1" vertex="1" parent="406">
                    <mxGeometry x="310" width="80" height="20" as="geometry">
                        <mxRectangle width="80" height="20" as="alternateBounds"/>
                    </mxGeometry>
                </mxCell>
                <mxCell id="415" value="4.2" style="shape=partialRectangle;html=1;whiteSpace=wrap;connectable=0;fillColor=none;top=0;left=0;bottom=0;right=0;overflow=hidden;fontSize=12;fontColor=#0000FF;fontStyle=1" vertex="1" parent="406">
                    <mxGeometry x="390" width="80" height="20" as="geometry">
                        <mxRectangle width="80" height="20" as="alternateBounds"/>
                    </mxGeometry>
                </mxCell>
                <mxCell id="417" value="&lt;font color=&quot;#000000&quot;&gt;削除&lt;/font&gt;" style="shape=partialRectangle;html=1;whiteSpace=wrap;connectable=0;fillColor=none;top=0;left=0;bottom=0;right=0;overflow=hidden;fontSize=12;fontColor=#0000FF;fontStyle=1" vertex="1" parent="406">
                    <mxGeometry x="470" width="80" height="20" as="geometry">
                        <mxRectangle width="80" height="20" as="alternateBounds"/>
                    </mxGeometry>
                </mxCell>
                <mxCell id="418" value="登録順で表示する" style="text;html=1;strokeColor=none;fillColor=none;align=center;verticalAlign=middle;whiteSpace=wrap;rounded=0;fontSize=12;fontColor=#000000;" vertex="1" parent="1">
                    <mxGeometry x="555" y="1620" width="105" height="30" as="geometry"/>
                </mxCell>
                <mxCell id="419" value="…" style="text;html=1;strokeColor=none;fillColor=none;align=center;verticalAlign=middle;whiteSpace=wrap;rounded=0;fontSize=30;fontColor=#000000;rotation=270;" vertex="1" parent="1">
                    <mxGeometry x="356" y="1700" width="60" height="30" as="geometry"/>
                </mxCell>
                <mxCell id="420" value="" style="shape=table;html=1;whiteSpace=wrap;startSize=0;container=1;collapsible=0;childLayout=tableLayout;fontSize=16;" vertex="1" parent="1">
                    <mxGeometry x="162" y="1740" width="550" height="20" as="geometry"/>
                </mxCell>
                <mxCell id="429" value="" style="shape=tableRow;horizontal=0;startSize=0;swimlaneHead=0;swimlaneBody=0;top=0;left=0;bottom=0;right=0;collapsible=0;dropTarget=0;fillColor=none;points=[[0,0.5],[1,0.5]];portConstraint=eastwest;fontSize=16;" vertex="1" parent="420">
                    <mxGeometry width="550" height="20" as="geometry"/>
                </mxCell>
                <mxCell id="430" value="ラーメン" style="shape=partialRectangle;html=1;whiteSpace=wrap;connectable=0;fillColor=none;top=0;left=0;bottom=0;right=0;overflow=hidden;fontSize=12;fontColor=#0000FF;fontStyle=1" vertex="1" parent="429">
                    <mxGeometry width="90" height="20" as="geometry">
                        <mxRectangle width="90" height="20" as="alternateBounds"/>
                    </mxGeometry>
                </mxCell>
                <mxCell id="431" value="500" style="shape=partialRectangle;html=1;whiteSpace=wrap;connectable=0;fillColor=none;top=0;left=0;bottom=0;right=0;overflow=hidden;fontSize=12;fontColor=#0000FF;fontStyle=1" vertex="1" parent="429">
                    <mxGeometry x="90" width="60" height="20" as="geometry">
                        <mxRectangle width="60" height="20" as="alternateBounds"/>
                    </mxGeometry>
                </mxCell>
                <mxCell id="432" value="12" style="shape=partialRectangle;html=1;whiteSpace=wrap;connectable=0;fillColor=none;top=0;left=0;bottom=0;right=0;overflow=hidden;fontSize=12;fontColor=#0000FF;fontStyle=1" vertex="1" parent="429">
                    <mxGeometry x="150" width="80" height="20" as="geometry">
                        <mxRectangle width="80" height="20" as="alternateBounds"/>
                    </mxGeometry>
                </mxCell>
                <mxCell id="433" value="40" style="shape=partialRectangle;html=1;whiteSpace=wrap;connectable=0;fillColor=none;top=0;left=0;bottom=0;right=0;overflow=hidden;fontSize=12;fontColor=#0000FF;fontStyle=1" vertex="1" parent="429">
                    <mxGeometry x="230" width="80" height="20" as="geometry">
                        <mxRectangle width="80" height="20" as="alternateBounds"/>
                    </mxGeometry>
                </mxCell>
                <mxCell id="434" value="25" style="shape=partialRectangle;html=1;whiteSpace=wrap;connectable=0;fillColor=none;top=0;left=0;bottom=0;right=0;overflow=hidden;fontSize=12;fontColor=#0000FF;fontStyle=1" vertex="1" parent="429">
                    <mxGeometry x="310" width="80" height="20" as="geometry">
                        <mxRectangle width="80" height="20" as="alternateBounds"/>
                    </mxGeometry>
                </mxCell>
                <mxCell id="435" value="4.2" style="shape=partialRectangle;html=1;whiteSpace=wrap;connectable=0;fillColor=none;top=0;left=0;bottom=0;right=0;overflow=hidden;fontSize=12;fontColor=#0000FF;fontStyle=1" vertex="1" parent="429">
                    <mxGeometry x="390" width="80" height="20" as="geometry">
                        <mxRectangle width="80" height="20" as="alternateBounds"/>
                    </mxGeometry>
                </mxCell>
                <mxCell id="436" value="&lt;font color=&quot;#000000&quot;&gt;削除&lt;/font&gt;" style="shape=partialRectangle;html=1;whiteSpace=wrap;connectable=0;fillColor=none;top=0;left=0;bottom=0;right=0;overflow=hidden;fontSize=12;fontColor=#0000FF;fontStyle=1" vertex="1" parent="429">
                    <mxGeometry x="470" width="80" height="20" as="geometry">
                        <mxRectangle width="80" height="20" as="alternateBounds"/>
                    </mxGeometry>
                </mxCell>
                <mxCell id="437" value="１" style="rounded=0;whiteSpace=wrap;html=1;labelBackgroundColor=#FFFFFF;strokeColor=#6c8ebf;fontSize=14;fillColor=#dae8fc;gradientColor=#7ea6e0;" vertex="1" parent="1">
                    <mxGeometry x="211.75" y="1790" width="30" height="25" as="geometry"/>
                </mxCell>
                <mxCell id="438" value="２" style="rounded=0;whiteSpace=wrap;html=1;labelBackgroundColor=#FFFFFF;fontSize=14;" vertex="1" parent="1">
                    <mxGeometry x="250.25" y="1790" width="30" height="25" as="geometry"/>
                </mxCell>
                <mxCell id="439" value="" style="endArrow=none;dashed=1;html=1;fontSize=14;fontColor=none;" edge="1" parent="1">
                    <mxGeometry width="50" height="50" relative="1" as="geometry">
                        <mxPoint x="352.75" y="1802" as="sourcePoint"/>
                        <mxPoint x="292.75" y="1802" as="targetPoint"/>
                    </mxGeometry>
                </mxCell>
                <mxCell id="440" value="９" style="rounded=0;whiteSpace=wrap;html=1;labelBackgroundColor=#FFFFFF;fontSize=14;" vertex="1" parent="1">
                    <mxGeometry x="362.75" y="1790" width="30" height="25" as="geometry"/>
                </mxCell>
                <mxCell id="441" value="１０" style="rounded=0;whiteSpace=wrap;html=1;labelBackgroundColor=#FFFFFF;fontSize=14;" vertex="1" parent="1">
                    <mxGeometry x="401.25" y="1790" width="30" height="25" as="geometry"/>
                </mxCell>
                <mxCell id="442" value="検索結果が11件以上ある場合は、&lt;br&gt;ページネーションで10件ずつの表示とする。" style="text;html=1;strokeColor=none;fillColor=none;align=left;verticalAlign=middle;whiteSpace=wrap;rounded=0;fontSize=12;fontColor=#000000;" vertex="1" parent="1">
                    <mxGeometry x="206" y="1850" width="250" height="50" as="geometry"/>
                </mxCell>
                <mxCell id="443" value="&lt;font style=&quot;font-size: 14px;&quot;&gt;※ 食事のラジオボタンを選択している場合は、&lt;br&gt;&amp;nbsp;　表に摂取日と時間が追加されるだけ&lt;/font&gt;" style="text;html=1;strokeColor=none;fillColor=none;align=left;verticalAlign=middle;whiteSpace=wrap;rounded=0;fontSize=30;fontColor=#000000;" vertex="1" parent="1">
                    <mxGeometry x="576" y="1538" width="342.5" height="30" as="geometry"/>
                </mxCell>
            </root>
        </mxGraphModel>
    </diagram>
</mxfile>